<?xml version="1.0" encoding="UTF-8" standalone="no"?><!-- Generator: Gravit.io --><svg xmlns="http://www.w3.org/2000/svg" xmlns:xlink="http://www.w3.org/1999/xlink" style="isolation:isolate" viewBox="0 0 431 368" width="431pt" height="368pt"><defs><clipPath id="_clipPath_wtU8zM8oYs7scXkl8WR7XXLGDHAOhdzz"><rect width="431" height="368"/></clipPath></defs><g clip-path="url(#_clipPath_wtU8zM8oYs7scXkl8WR7XXLGDHAOhdzz)"><clipPath id="_clipPath_OPSoQS7Ob5mUeOjU5M7h4exj8qhDEhnP"><rect x="0" y="0" width="431" height="368" transform="matrix(1,0,0,1,0,0)" fill="rgb(255,255,255)"/></clipPath><g clip-path="url(#_clipPath_OPSoQS7Ob5mUeOjU5M7h4exj8qhDEhnP)"><g><linearGradient id="_lgradient_0" x1="0" y1="0.5000342785862506" x2="1" y2="0.5000342785862506" gradientTransform="matrix(28.701,0,0,59.804,344.897,85.525)" gradientUnits="userSpaceOnUse"><stop offset="0%" stop-opacity="0.25" style="stop-color:rgb(128,128,128)"/><stop offset="54%" stop-opacity="0.12" style="stop-color:rgb(128,128,128)"/><stop offset="100%" stop-opacity="0.1" style="stop-color:rgb(128,128,128)"/></linearGradient><path d=" M 344.897 117.791 L 344.897 85.525 L 373.598 85.525 L 373.598 145.329 L 344.897 117.791 L 344.897 117.791 Z " fill="url(#_lgradient_0)"/><path d=" M 348.302 120.026 L 348.302 91.842 L 369.707 91.842 L 369.707 145.329 L 348.302 120.026 L 348.302 120.026 Z " fill="rgb(184,202,31)"/><linearGradient id="_lgradient_1" x1="347.64020984243" y1="559.733732319578" x2="347.64020984243" y2="158.42026727736754" gradientTransform="matrix(185.472,0,0,195.011,-0.001,47.821)" gradientUnits="userSpaceOnUse"><stop offset="0%" stop-opacity="0.25" style="stop-color:rgb(128,128,128)"/><stop offset="54%" stop-opacity="0.12" style="stop-color:rgb(128,128,128)"/><stop offset="100%" stop-opacity="0.1" style="stop-color:rgb(128,128,128)"/></linearGradient><path d=" M 168.066 148.439 C 172.015 143.926 174.949 138.619 176.669 132.876 C 178.388 127.133 178.854 121.088 178.033 115.15 C 177.213 109.212 175.126 103.519 171.913 98.456 C 168.701 93.393 164.437 89.077 159.412 85.802 C 162.01 81.784 163.388 77.101 163.381 72.317 C 163.381 58.789 152.645 47.821 139.404 47.821 C 128.497 47.821 119.303 55.271 116.399 65.456 C 110.138 54.887 98.78 47.821 85.806 47.821 C 66.071 47.821 50.076 64.163 50.076 84.325 C 50.071 88.62 50.812 92.883 52.265 96.925 C 51.54 96.867 50.806 96.813 50.076 96.813 C 34.237 96.813 21.375 109.934 21.375 126.115 C 21.375 127.111 21.424 128.098 21.521 129.075 C 15.078 131.965 9.613 136.663 5.793 142.597 C 1.972 148.531 -0.04 155.447 0 162.502 C 0 182.596 15.946 198.889 35.613 198.889 C 37.68 198.886 39.743 198.701 41.777 198.335 C 41.67 199.545 41.607 200.765 41.607 202.014 C 41.607 224.561 59.498 242.832 81.569 242.832 C 89.729 242.831 97.686 240.282 104.325 235.543 C 109.668 240.233 116.535 242.823 123.647 242.832 C 140.133 242.832 153.501 229.178 153.501 212.33 C 153.501 211.601 153.443 210.872 153.394 210.168 L 153.501 210.168 C 171.16 210.168 185.471 195.546 185.471 177.508 C 185.498 171.538 183.891 165.674 180.824 160.551 C 177.756 155.427 173.344 151.239 168.066 148.439 L 168.066 148.439 L 168.066 148.439 Z " fill="url(#_lgradient_1)"/><path d=" M 163.449 148.245 C 167.157 144.009 169.912 139.027 171.527 133.636 C 173.141 128.244 173.578 122.57 172.808 116.995 C 172.038 111.421 170.078 106.077 167.062 101.324 C 164.046 96.571 160.044 92.521 155.325 89.446 C 157.761 85.682 159.055 81.294 159.052 76.812 C 159.052 64.115 148.977 53.818 136.543 53.818 C 126.328 53.818 117.679 60.81 114.95 70.369 C 112.023 65.352 107.835 61.186 102.801 58.283 C 97.767 55.38 92.061 53.841 86.249 53.818 C 67.724 53.818 52.708 69.159 52.708 88.081 C 52.703 92.112 53.397 96.114 54.76 99.909 C 54.079 99.855 53.398 99.802 52.708 99.802 C 37.822 99.797 25.782 112.106 25.782 127.315 C 25.782 128.253 25.831 129.177 25.918 130.09 C 19.867 132.801 14.735 137.209 11.146 142.78 C 7.556 148.35 5.665 154.843 5.701 161.467 C 5.701 180.331 20.67 195.619 39.131 195.619 C 41.07 195.616 43.006 195.442 44.915 195.099 C 44.817 196.236 44.754 197.388 44.754 198.549 C 44.754 219.712 61.546 236.87 82.265 236.87 C 89.92 236.88 97.388 234.501 103.625 230.067 C 108.645 234.454 115.089 236.872 121.76 236.87 C 137.234 236.87 149.785 224.051 149.785 208.239 C 149.785 207.553 149.731 206.883 149.683 206.207 L 149.785 206.207 C 166.358 206.207 179.794 192.48 179.794 175.55 C 179.823 169.942 178.315 164.433 175.434 159.62 C 172.553 154.807 168.408 150.873 163.449 148.245 Z " fill="rgb(0,137,123)"/><linearGradient id="_lgradient_2" x1="205.39570277529074" y1="660.5778095985958" x2="205.39570277529077" y2="215.06993394614074" gradientTransform="matrix(8.713,0,0,216.49,95.559,104.51)" gradientUnits="userSpaceOnUse"><stop offset="0%" stop-opacity="0.25" style="stop-color:rgb(128,128,128)"/><stop offset="54%" stop-opacity="0.12" style="stop-color:rgb(128,128,128)"/><stop offset="100%" stop-opacity="0.1" style="stop-color:rgb(128,128,128)"/></linearGradient><path d=" M 104.272 104.51 L 95.559 104.51 L 95.559 321 L 104.272 321 L 104.272 104.51 L 104.272 104.51 Z " fill="url(#_lgradient_2)"/><path d=" M 102.418 107.552 L 98.036 107.552 L 98.036 321 L 102.418 321 L 102.418 107.552 L 102.418 107.552 Z " fill="rgb(121,85,72)"/><path d=" M 133.601 131.655 L 97.637 170.451 L 100.853 173.426 L 136.817 134.63 L 133.601 131.655 L 133.601 131.655 Z " fill="rgb(121,85,72)"/><path d=" M 63.262 175.875 L 60.649 179.39 L 97.937 207.054 L 100.551 203.539 L 63.262 175.875 L 63.262 175.875 Z " fill="rgb(121,85,72)"/><linearGradient id="_lgradient_3" x1="527.1689944278653" y1="577.5303119654307" x2="527.1689944278653" y2="241.780108276428" gradientTransform="matrix(164.228,0,0,163.125,97.943,88.357)" gradientUnits="userSpaceOnUse"><stop offset="0%" stop-opacity="0.25" style="stop-color:rgb(128,128,128)"/><stop offset="54%" stop-opacity="0.12" style="stop-color:rgb(128,128,128)"/><stop offset="100%" stop-opacity="0.1" style="stop-color:rgb(128,128,128)"/></linearGradient><path d=" M 113.344 172.508 C 107.461 166.254 104.181 157.998 104.17 149.416 C 104.17 137.054 110.897 126.217 121.006 120.109 C 118.731 116.794 117.514 112.869 117.513 108.85 C 117.513 97.532 127.019 88.358 138.747 88.358 C 148.408 88.358 156.546 94.588 159.12 103.111 C 162.015 98.561 166.02 94.821 170.758 92.24 C 175.497 89.66 180.814 88.324 186.21 88.358 C 203.689 88.358 217.83 102.032 217.83 118.899 C 217.83 122.501 217.17 126.073 215.884 129.439 C 216.526 129.39 217.169 129.347 217.83 129.347 C 231.86 129.347 243.228 140.319 243.228 153.857 C 243.227 154.684 243.183 155.509 243.097 156.331 C 254.314 160.996 262.171 171.759 262.171 184.296 C 262.171 201.11 248.063 214.736 230.629 214.736 C 228.799 214.726 226.973 214.563 225.171 214.25 C 225.263 215.265 225.322 216.286 225.322 217.326 C 225.322 236.19 209.478 251.482 189.932 251.482 C 182.768 251.495 175.762 249.377 169.807 245.398 C 164.983 249.349 158.932 251.5 152.694 251.482 C 138.1 251.482 126.255 240.058 126.255 225.966 C 126.255 225.353 126.303 224.756 126.347 224.153 L 126.255 224.153 C 110.62 224.153 97.943 211.917 97.943 196.829 C 97.943 186.226 104.213 177.037 113.344 172.508 Z " fill="url(#_lgradient_3)"/><path d=" M 116.219 172.396 C 110.596 166.405 107.466 158.502 107.463 150.291 C 107.463 138.458 113.904 128.088 123.579 122.242 C 121.391 119.066 120.218 115.301 120.218 111.445 C 120.218 100.613 129.319 91.828 140.542 91.828 C 149.785 91.828 157.568 97.79 160.044 105.949 C 162.815 101.601 166.644 98.026 171.175 95.559 C 175.705 93.092 180.788 91.813 185.948 91.842 C 202.677 91.842 216.235 104.928 216.235 121.071 C 216.238 124.52 215.61 127.941 214.381 131.164 C 214.994 131.12 215.607 131.072 216.235 131.072 C 229.661 131.072 240.557 141.578 240.557 154.533 C 240.558 155.323 240.517 156.113 240.436 156.899 C 251.172 161.365 258.692 171.667 258.692 183.665 C 258.692 199.754 245.179 212.821 228.503 212.821 C 226.753 212.811 225.007 212.655 223.283 212.354 C 223.371 213.326 223.424 214.298 223.424 215.299 C 223.424 233.357 208.257 247.993 189.552 247.993 C 182.686 248.008 175.971 245.978 170.264 242.162 C 165.648 245.946 159.857 248.008 153.885 247.993 C 139.91 247.993 128.59 237.059 128.59 223.57 C 128.59 222.987 128.638 222.413 128.682 221.835 L 128.59 221.835 C 113.622 221.835 101.489 210.124 101.489 195.682 C 101.465 185.526 107.463 176.73 116.219 172.396 Z " fill="rgb(0,150,136)"/><linearGradient id="_lgradient_4" x1="356.6138863659302" y1="658.3295725968894" x2="356.6138863659302" y2="284.39918107670803" gradientTransform="matrix(9.909,0,0,181.702,168.523,138.2)" gradientUnits="userSpaceOnUse"><stop offset="0%" stop-opacity="0.25" style="stop-color:rgb(128,128,128)"/><stop offset="54%" stop-opacity="0.12" style="stop-color:rgb(128,128,128)"/><stop offset="100%" stop-opacity="0.1" style="stop-color:rgb(128,128,128)"/></linearGradient><path d=" M 178.432 138.2 L 168.523 138.2 L 168.523 319.902 L 178.432 319.902 L 178.432 138.2 L 178.432 138.2 Z " fill="url(#_lgradient_4)"/><path d=" M 176.379 138.2 L 170.902 138.2 L 170.902 319.902 L 176.379 319.902 L 176.379 138.2 L 176.379 138.2 Z " fill="rgb(121,85,72)"/><path d=" M 143.667 157.609 L 139.756 161.439 L 172.236 194.537 L 176.148 190.707 L 143.667 157.609 L 143.667 157.609 Z " fill="rgb(121,85,72)"/><path d=" M 206.292 195.216 L 172.622 218.82 L 175.768 223.299 L 209.439 199.695 L 206.292 195.216 L 206.292 195.216 Z " fill="rgb(121,85,72)"/><linearGradient id="_lgradient_5" x1="719.0813791278376" y1="790.2173162375583" x2="719.0813791278376" y2="409.9999567012875" gradientTransform="matrix(264.515,0,0,184.763,141.189,170.078)" gradientUnits="userSpaceOnUse"><stop offset="0%" stop-opacity="0.25" style="stop-color:rgb(128,128,128)"/><stop offset="54%" stop-opacity="0.12" style="stop-color:rgb(128,128,128)"/><stop offset="100%" stop-opacity="0.1" style="stop-color:rgb(128,128,128)"/></linearGradient><path d=" M 395.591 170.078 L 151.288 170.078 C 145.708 170.078 141.189 172.585 141.189 175.686 L 141.189 354.841 L 405.704 354.841 L 405.704 175.686 C 405.704 172.585 401.171 170.078 395.591 170.078 Z " fill="url(#_lgradient_5)"/><path d=" M 272.668 67.565 L 145.222 162.128 L 145.222 348.009 L 400.879 348.009 L 400.879 168.873 L 272.668 67.565 L 272.668 67.565 Z " fill="rgb(255,255,255)"/><linearGradient id="_lgradient_6" x1="561.0369802677944" y1="372.9111271803735" x2="561.0369802677944" y2="256.230056967495" gradientTransform="matrix(56.76,0,0,56.699,244.541,124.512)" gradientUnits="userSpaceOnUse"><stop offset="0%" stop-opacity="0.25" style="stop-color:rgb(128,128,128)"/><stop offset="54%" stop-opacity="0.12" style="stop-color:rgb(128,128,128)"/><stop offset="100%" stop-opacity="0.1" style="stop-color:rgb(128,128,128)"/></linearGradient><path d=" M 272.921 181.211 C 288.595 181.211 301.301 168.518 301.301 152.861 C 301.301 137.204 288.595 124.512 272.921 124.512 C 257.248 124.512 244.541 137.204 244.541 152.861 C 244.541 168.518 257.248 181.211 272.921 181.211 Z " fill="url(#_lgradient_6)"/><linearGradient id="_lgradient_7" x1="400.0828400007975" y1="530.2058465529283" x2="400.0828400007975" y2="427.0770428015564" gradientTransform="matrix(50.169,0,0,50.115,169.544,207.534)" gradientUnits="userSpaceOnUse"><stop offset="0%" stop-opacity="0.25" style="stop-color:rgb(128,128,128)"/><stop offset="54%" stop-opacity="0.12" style="stop-color:rgb(128,128,128)"/><stop offset="100%" stop-opacity="0.1" style="stop-color:rgb(128,128,128)"/></linearGradient><path d=" M 219.713 207.534 L 169.544 207.534 L 169.544 257.649 L 219.713 257.649 L 219.713 207.534 L 219.713 207.534 Z " fill="url(#_lgradient_7)"/><linearGradient id="_lgradient_8" x1="719.9027667038747" y1="530.2058465529282" x2="719.9027667038747" y2="427.0770428015563" gradientTransform="matrix(50.168,0,0,50.115,325.118,207.534)" gradientUnits="userSpaceOnUse"><stop offset="0%" stop-opacity="0.25" style="stop-color:rgb(128,128,128)"/><stop offset="54%" stop-opacity="0.12" style="stop-color:rgb(128,128,128)"/><stop offset="100%" stop-opacity="0.1" style="stop-color:rgb(128,128,128)"/></linearGradient><path d=" M 375.286 207.534 L 325.118 207.534 L 325.118 257.649 L 375.286 257.649 L 375.286 207.534 L 375.286 207.534 Z " fill="url(#_lgradient_8)"/><linearGradient id="_lgradient_9" x1="560.0105784237992" y1="430.7000029313643" x2="560.0105784237992" y2="100.75000452178534" gradientTransform="matrix(317.155,0,0,160.335,113.845,48.958)" gradientUnits="userSpaceOnUse"><stop offset="0%" stop-opacity="0.25" style="stop-color:rgb(128,128,128)"/><stop offset="54%" stop-opacity="0.12" style="stop-color:rgb(128,128,128)"/><stop offset="100%" stop-opacity="0.1" style="stop-color:rgb(128,128,128)"/></linearGradient><path d=" M 120.641 209.293 L 113.845 171.322 L 273.228 48.958 L 431 173.766 L 426.622 207.835 L 273.203 92.192 L 120.641 209.293 L 120.641 209.293 Z " fill="url(#_lgradient_9)"/><path d=" M 120.952 201.669 L 116.278 175.433 L 273.189 53.123 L 428.568 175.443 L 423.864 201.654 L 273.164 83.018 L 120.952 201.669 L 120.952 201.669 Z " fill="rgb(147,159,36)"/><linearGradient id="_lgradient_10" x1="560.5171075377542" y1="716.154879984722" x2="560.5171075377542" y2="543.7458612334539" gradientTransform="matrix(61.318,0,0,83.781,242.012,264.228)" gradientUnits="userSpaceOnUse"><stop offset="0%" stop-opacity="0.25" style="stop-color:rgb(128,128,128)"/><stop offset="54%" stop-opacity="0.12" style="stop-color:rgb(128,128,128)"/><stop offset="100%" stop-opacity="0.1" style="stop-color:rgb(128,128,128)"/></linearGradient><path d=" M 303.33 264.228 L 242.012 264.228 L 242.012 348.009 L 303.33 348.009 L 303.33 264.228 L 303.33 264.228 Z " fill="url(#_lgradient_10)"/><path d=" M 301.554 266.002 L 243.783 266.002 L 243.783 348.009 L 301.554 348.009 L 301.554 266.002 L 301.554 266.002 Z " fill="rgb(184,202,31)"/><path d=" M 218.448 209.303 L 171.826 209.303 L 171.826 225.757 L 218.448 225.757 L 218.448 209.303 L 218.448 209.303 Z " fill="rgb(184,202,31)"/><g opacity="0.2"><path d=" M 218.448 225.757 L 171.826 225.757 L 171.826 255.875 L 218.448 255.875 L 218.448 225.757 L 218.448 225.757 Z " fill="rgb(184,202,31)"/></g><path d=" M 373.516 209.303 L 326.894 209.303 L 326.894 225.757 L 373.516 225.757 L 373.516 209.303 L 373.516 209.303 Z " fill="rgb(184,202,31)"/><g opacity="0.2"><path d=" M 373.516 225.757 L 326.894 225.757 L 326.894 255.875 L 373.516 255.875 L 373.516 225.757 L 373.516 225.757 Z " fill="rgb(184,202,31)"/></g><path d=" M 272.668 178.426 C 276.064 178.426 279.427 177.758 282.565 176.459 C 285.702 175.16 288.552 173.256 290.952 170.856 C 293.353 168.456 295.256 165.607 296.553 162.472 C 297.851 159.337 298.517 155.977 298.514 152.584 L 246.823 152.584 C 246.82 155.977 247.486 159.337 248.783 162.472 C 250.081 165.607 251.984 168.456 254.384 170.856 C 256.785 173.256 259.635 175.16 262.772 176.459 C 265.909 177.758 269.272 178.426 272.668 178.426 L 272.668 178.426 L 272.668 178.426 Z " fill="rgb(184,202,31)"/><g opacity="0.2"><path d=" M 272.668 178.174 C 279.523 178.174 286.097 175.454 290.944 170.612 C 295.791 165.77 298.514 159.203 298.514 152.356 L 246.823 152.356 C 246.823 159.203 249.546 165.77 254.393 170.612 C 259.24 175.454 265.814 178.174 272.668 178.174 L 272.668 178.174 L 272.668 178.174 Z " fill="rgb(0,0,0)"/></g><g opacity="0.2"><path d=" M 272.668 126.791 C 265.818 126.791 259.248 129.507 254.401 134.344 C 249.555 139.18 246.829 145.741 246.823 152.584 L 298.514 152.584 C 298.507 145.741 295.781 139.18 290.935 134.344 C 286.089 129.507 279.519 126.791 272.668 126.791 L 272.668 126.791 L 272.668 126.791 Z " fill="rgb(184,202,31)"/></g><g opacity="0.2"><path d=" M 272.668 126.791 C 265.818 126.791 259.248 129.507 254.401 134.344 C 249.555 139.18 246.829 145.741 246.823 152.584 L 298.514 152.584 C 298.507 145.741 295.781 139.18 290.935 134.344 C 286.089 129.507 279.519 126.791 272.668 126.791 L 272.668 126.791 L 272.668 126.791 Z " fill="rgb(184,202,31)"/></g><linearGradient id="_lgradient_11" x1="592.2609768130226" y1="643.7305127994073" x2="592.2609768130226" y2="618.7317474689274" gradientTransform="matrix(12.162,0,0,12.149,282.042,300.678)" gradientUnits="userSpaceOnUse"><stop offset="0%" stop-opacity="0.25" style="stop-color:rgb(128,128,128)"/><stop offset="54%" stop-opacity="0.12" style="stop-color:rgb(128,128,128)"/><stop offset="100%" stop-opacity="0.1" style="stop-color:rgb(128,128,128)"/></linearGradient><path d=" M 288.123 312.827 C 291.481 312.827 294.204 310.107 294.204 306.753 C 294.204 303.398 291.481 300.678 288.123 300.678 C 284.765 300.678 282.042 303.398 282.042 306.753 C 282.042 310.107 284.765 312.827 288.123 312.827 Z " fill="url(#_lgradient_11)"/><path d=" M 288.123 311.311 C 290.643 311.311 292.686 309.27 292.686 306.753 C 292.686 304.235 290.643 302.194 288.123 302.194 C 285.603 302.194 283.56 304.235 283.56 306.753 C 283.56 309.27 285.603 311.311 288.123 311.311 Z " fill="rgb(38,50,56)"/><linearGradient id="_lgradient_12" x1="558.4404961673223" y1="741.6753920237059" x2="558.4404961673223" y2="691.6774498909323" gradientTransform="matrix(74.491,0,0,24.297,234.409,336.113)" gradientUnits="userSpaceOnUse"><stop offset="0%" stop-opacity="0.25" style="stop-color:rgb(128,128,128)"/><stop offset="54%" stop-opacity="0.12" style="stop-color:rgb(128,128,128)"/><stop offset="100%" stop-opacity="0.1" style="stop-color:rgb(128,128,128)"/></linearGradient><path d=" M 308.9 336.113 L 234.409 336.113 L 234.409 360.41 L 308.9 360.41 L 308.9 336.113 L 308.9 336.113 Z " fill="url(#_lgradient_12)"/><path d=" M 307.377 338.134 L 235.926 338.134 L 235.926 358.889 L 307.377 358.889 L 307.377 338.134 L 307.377 338.134 Z " fill="rgb(255,255,255)"/><linearGradient id="_lgradient_13" x1="424.14912620877016" y1="725.919477717349" x2="424.14912620877016" y2="540.9295430026804" gradientTransform="matrix(85.495,0,0,89.913,87.202,233.702)" gradientUnits="userSpaceOnUse"><stop offset="0%" stop-opacity="0.25" style="stop-color:rgb(128,128,128)"/><stop offset="54%" stop-opacity="0.12" style="stop-color:rgb(128,128,128)"/><stop offset="100%" stop-opacity="0.1" style="stop-color:rgb(128,128,128)"/></linearGradient><path d=" M 164.68 280.079 C 166.5 277.999 167.851 275.553 168.643 272.906 C 169.435 270.259 169.65 267.473 169.271 264.737 C 168.893 262 167.932 259.376 166.451 257.043 C 164.971 254.709 163.007 252.72 160.691 251.21 C 161.889 249.358 162.524 247.199 162.52 244.995 C 162.588 242.304 161.666 239.681 159.93 237.623 C 158.193 235.564 155.762 234.213 153.095 233.823 C 150.429 233.434 147.712 234.033 145.458 235.509 C 143.204 236.985 141.57 239.234 140.863 241.831 C 139.425 239.366 137.367 237.318 134.892 235.892 C 132.417 234.466 129.613 233.711 126.756 233.702 C 117.659 233.702 110.284 241.234 110.284 250.53 C 110.279 252.517 110.62 254.49 111.291 256.361 C 110.956 256.337 110.625 256.307 110.284 256.307 C 102.988 256.307 97.063 262.352 97.063 269.812 C 97.063 270.273 97.063 270.725 97.131 271.177 C 94.159 272.508 91.639 274.674 89.876 277.409 C 88.114 280.145 87.185 283.333 87.202 286.586 C 87.202 295.848 94.553 303.356 103.62 303.356 C 104.573 303.354 105.523 303.268 106.461 303.098 C 106.412 303.657 106.383 304.221 106.383 304.794 C 106.383 315.188 114.653 323.615 124.805 323.615 C 128.565 323.615 132.232 322.443 135.293 320.262 C 137.757 322.421 140.922 323.612 144.2 323.615 C 151.799 323.615 157.962 317.297 157.962 309.556 C 157.962 309.221 157.938 308.891 157.913 308.56 L 157.962 308.56 C 166.1 308.56 172.697 301.82 172.697 293.496 C 172.713 290.742 171.975 288.036 170.562 285.671 C 169.149 283.306 167.115 281.372 164.68 280.079 L 164.68 280.079 L 164.68 280.079 Z " fill="url(#_lgradient_13)"/><path d=" M 162.549 279.992 C 164.258 278.039 165.527 275.743 166.271 273.258 C 167.014 270.773 167.215 268.158 166.86 265.589 C 166.505 263.02 165.602 260.557 164.212 258.366 C 162.822 256.175 160.978 254.308 158.804 252.891 C 159.927 251.154 160.524 249.129 160.521 247.06 C 160.585 244.534 159.72 242.072 158.09 240.139 C 156.459 238.207 154.177 236.938 151.674 236.572 C 149.171 236.207 146.62 236.77 144.505 238.155 C 142.389 239.541 140.855 241.652 140.192 244.091 C 138.843 241.779 136.913 239.859 134.593 238.521 C 132.273 237.183 129.644 236.473 126.965 236.462 C 118.428 236.462 111.505 243.532 111.505 252.255 C 111.504 254.113 111.825 255.958 112.454 257.707 C 112.143 257.707 111.827 257.658 111.505 257.658 C 104.651 257.658 99.096 263.334 99.096 270.336 C 99.096 270.769 99.096 271.197 99.159 271.614 C 96.37 272.864 94.005 274.896 92.35 277.463 C 90.695 280.03 89.823 283.023 89.839 286.076 C 89.839 294.769 96.737 301.82 105.25 301.82 C 106.143 301.82 107.036 301.74 107.915 301.582 C 107.872 302.107 107.842 302.637 107.842 303.171 C 107.842 312.929 115.582 320.835 125.131 320.835 C 128.661 320.836 132.104 319.735 134.977 317.686 C 137.29 319.714 140.262 320.833 143.339 320.835 C 150.475 320.835 156.255 314.926 156.255 307.637 C 156.255 307.321 156.23 307.01 156.206 306.699 L 156.255 306.699 C 163.892 306.699 170.089 300.382 170.089 292.568 C 170.1 289.984 169.404 287.447 168.074 285.23 C 166.745 283.013 164.835 281.202 162.549 279.992 L 162.549 279.992 L 162.549 279.992 Z " fill="rgb(0,137,123)"/><linearGradient id="_lgradient_14" x1="273.9556993529118" y1="740.0699955908286" x2="273.9556993529118" y2="534.7098464806796" gradientTransform="matrix(4.018,0,0,99.792,131.256,259.835)" gradientUnits="userSpaceOnUse"><stop offset="0%" stop-opacity="0.25" style="stop-color:rgb(128,128,128)"/><stop offset="54%" stop-opacity="0.12" style="stop-color:rgb(128,128,128)"/><stop offset="100%" stop-opacity="0.1" style="stop-color:rgb(128,128,128)"/></linearGradient><path d=" M 135.274 259.835 L 131.256 259.835 L 131.256 359.627 L 135.274 359.627 L 135.274 259.835 L 135.274 259.835 Z " fill="url(#_lgradient_14)"/><path d=" M 134.418 261.235 L 132.399 261.235 L 132.399 359.627 L 134.418 359.627 L 134.418 261.235 L 134.418 261.235 Z " fill="rgb(121,85,72)"/><path d=" M 148.798 272.327 L 132.219 290.211 L 133.7 291.581 L 150.279 273.697 L 148.798 272.327 L 148.798 272.327 Z " fill="rgb(121,85,72)"/><path d=" M 116.368 292.738 L 115.165 294.357 L 132.352 307.108 L 133.556 305.489 L 116.368 292.738 L 116.368 292.738 Z " fill="rgb(121,85,72)"/><linearGradient id="_lgradient_15" x1="506.90673075653336" y1="734.1199861655147" x2="506.90673075653336" y2="579.3602580569453" gradientTransform="matrix(75.727,0,0,75.224,132.374,252.375)" gradientUnits="userSpaceOnUse"><stop offset="0%" stop-opacity="0.25" style="stop-color:rgb(128,128,128)"/><stop offset="54%" stop-opacity="0.12" style="stop-color:rgb(128,128,128)"/><stop offset="100%" stop-opacity="0.1" style="stop-color:rgb(128,128,128)"/></linearGradient><path d=" M 139.462 291.178 C 136.748 288.296 135.236 284.488 135.235 280.531 C 135.253 277.8 135.979 275.119 137.343 272.752 C 138.707 270.384 140.662 268.41 143.018 267.022 C 141.964 265.493 141.399 263.68 141.398 261.823 C 141.398 256.604 145.776 252.376 151.186 252.376 C 153.275 252.352 155.317 253.001 157.009 254.226 C 158.7 255.451 159.952 257.188 160.579 259.179 C 161.913 257.082 163.759 255.357 165.943 254.167 C 168.128 252.977 170.579 252.361 173.066 252.376 C 181.122 252.376 187.66 258.693 187.66 266.468 C 187.661 268.129 187.358 269.776 186.765 271.328 C 187.062 271.328 187.359 271.284 187.66 271.284 C 194.125 271.284 199.369 276.343 199.369 282.582 C 199.369 282.963 199.35 283.345 199.311 283.724 C 201.888 284.763 204.099 286.543 205.664 288.838 C 207.229 291.132 208.077 293.839 208.101 296.616 C 208.101 304.367 201.592 310.65 193.561 310.65 C 192.718 310.649 191.877 310.577 191.046 310.436 C 191.09 310.922 191.114 311.374 191.114 311.855 C 191.114 320.548 183.817 327.599 174.798 327.599 C 171.491 327.608 168.256 326.632 165.507 324.795 C 163.279 326.611 160.487 327.595 157.612 327.58 C 150.879 327.58 145.426 322.312 145.426 315.815 C 145.426 315.533 145.426 315.256 145.47 314.979 L 145.426 314.979 C 138.217 314.979 132.374 309.338 132.374 302.384 C 132.391 300.042 133.064 297.751 134.317 295.77 C 135.569 293.79 137.352 292.199 139.462 291.178 Z " fill="url(#_lgradient_15)"/><path d=" M 140.78 291.125 C 138.181 288.361 136.733 284.712 136.733 280.92 C 136.748 278.307 137.44 275.743 138.742 273.477 C 140.044 271.211 141.911 269.32 144.161 267.989 C 143.152 266.526 142.611 264.791 142.609 263.013 C 142.609 258.018 146.803 253.97 151.979 253.97 C 153.977 253.95 155.929 254.571 157.548 255.743 C 159.166 256.914 160.365 258.573 160.968 260.477 C 162.246 258.47 164.013 256.82 166.104 255.682 C 168.194 254.544 170.54 253.955 172.92 253.97 C 180.631 253.97 186.882 260.001 186.882 267.445 C 186.882 269.034 186.592 270.61 186.026 272.096 C 186.308 272.096 186.59 272.052 186.882 272.052 C 193.07 272.052 198.07 276.911 198.07 282.869 C 198.07 283.234 198.05 283.599 198.012 283.962 C 200.479 284.956 202.596 286.659 204.094 288.855 C 205.592 291.052 206.404 293.642 206.428 296.3 C 206.428 303.715 200.196 309.731 192.51 309.731 C 191.695 309.732 190.881 309.664 190.078 309.527 C 190.122 309.974 190.146 310.426 190.146 310.883 C 190.146 319.207 183.156 325.947 174.531 325.947 C 171.365 325.956 168.269 325.022 165.638 323.265 C 163.51 325.007 160.84 325.955 158.088 325.947 C 151.648 325.947 146.414 320.908 146.414 314.688 C 146.414 314.421 146.414 314.153 146.457 313.891 L 146.414 313.891 C 139.516 313.891 133.921 308.492 133.921 301.835 C 133.947 299.587 134.604 297.392 135.816 295.499 C 137.029 293.606 138.749 292.09 140.78 291.125 L 140.78 291.125 L 140.78 291.125 Z " fill="rgb(0,150,136)"/><linearGradient id="_lgradient_16" x1="343.6385726795109" y1="739.0305052772335" x2="343.6385726795109" y2="566.6607646019387" gradientTransform="matrix(4.568,0,0,83.756,164.889,275.361)" gradientUnits="userSpaceOnUse"><stop offset="0%" stop-opacity="0.25" style="stop-color:rgb(128,128,128)"/><stop offset="54%" stop-opacity="0.12" style="stop-color:rgb(128,128,128)"/><stop offset="100%" stop-opacity="0.1" style="stop-color:rgb(128,128,128)"/></linearGradient><path d=" M 169.457 275.361 L 164.889 275.361 L 164.889 359.117 L 169.457 359.117 L 169.457 275.361 L 169.457 275.361 Z " fill="url(#_lgradient_16)"/><path d=" M 168.513 275.361 L 165.989 275.361 L 165.989 359.117 L 168.513 359.117 L 168.513 275.361 L 168.513 275.361 Z " fill="rgb(121,85,72)"/><path d=" M 153.433 284.311 L 151.63 286.076 L 166.604 301.334 L 168.407 299.569 L 153.433 284.311 L 153.433 284.311 Z " fill="rgb(121,85,72)"/><path d=" M 182.305 301.639 L 166.783 312.52 L 168.234 314.584 L 183.755 303.703 L 182.305 301.639 L 182.305 301.639 Z " fill="rgb(121,85,72)"/><linearGradient id="_lgradient_17" x1="259.86729188078095" y1="511.759742765273" x2="259.86729188078095" y2="495.759742765273" gradientTransform="matrix(7.784,0,0,7.775,122.533,240.908)" gradientUnits="userSpaceOnUse"><stop offset="0%" stop-opacity="0.25" style="stop-color:rgb(128,128,128)"/><stop offset="54%" stop-opacity="0.12" style="stop-color:rgb(128,128,128)"/><stop offset="100%" stop-opacity="0.1" style="stop-color:rgb(128,128,128)"/></linearGradient><path d=" M 126.425 248.683 C 128.574 248.683 130.317 246.943 130.317 244.796 C 130.317 242.649 128.574 240.908 126.425 240.908 C 124.276 240.908 122.533 242.649 122.533 244.796 C 122.533 246.943 124.276 248.683 126.425 248.683 Z " fill="url(#_lgradient_17)"/><linearGradient id="_lgradient_18" x1="-502.30947369107645" y1="749.8909488811069" x2="-502.30947369107645" y2="581.7006432961193" gradientTransform="matrix(77.736,0,0,81.734,350.608,253.509)" gradientUnits="userSpaceOnUse"><stop offset="0%" stop-opacity="0.25" style="stop-color:rgb(128,128,128)"/><stop offset="54%" stop-opacity="0.12" style="stop-color:rgb(128,128,128)"/><stop offset="100%" stop-opacity="0.1" style="stop-color:rgb(128,128,128)"/></linearGradient><path d=" M 357.905 295.678 C 356.252 293.787 355.024 291.563 354.305 289.157 C 353.585 286.751 353.391 284.219 353.735 281.732 C 354.079 279.245 354.953 276.86 356.299 274.739 C 357.644 272.618 359.429 270.81 361.534 269.437 C 360.445 267.754 359.867 265.791 359.87 263.786 C 359.805 261.337 360.641 258.949 362.22 257.075 C 363.799 255.2 366.011 253.969 368.438 253.615 C 370.864 253.26 373.337 253.807 375.387 255.151 C 377.437 256.496 378.923 258.544 379.562 260.909 C 380.869 258.668 382.74 256.807 384.99 255.51 C 387.239 254.214 389.788 253.527 392.385 253.518 C 400.655 253.518 407.358 260.37 407.358 268.815 C 407.361 270.616 407.052 272.403 406.444 274.098 C 406.745 274.098 407.052 274.049 407.358 274.049 C 413.998 274.049 419.379 279.545 419.379 286.329 C 419.379 286.746 419.379 287.16 419.315 287.568 C 422.017 288.778 424.309 290.746 425.912 293.233 C 427.515 295.72 428.36 298.619 428.344 301.577 C 428.344 309.999 421.66 316.826 413.419 316.826 C 412.553 316.825 411.689 316.746 410.836 316.593 C 410.88 317.079 410.909 317.613 410.909 318.133 C 410.909 327.585 403.413 335.243 394.161 335.243 C 390.741 335.245 387.406 334.18 384.621 332.196 C 382.379 334.16 379.499 335.243 376.517 335.243 C 369.609 335.243 364.005 329.519 364.005 322.458 C 364.005 322.152 364.005 321.851 364.049 321.549 L 364.005 321.549 C 356.606 321.549 350.608 315.422 350.608 307.86 C 350.597 305.358 351.271 302.901 352.557 300.753 C 353.843 298.606 355.693 296.851 357.905 295.678 L 357.905 295.678 L 357.905 295.678 Z " fill="url(#_lgradient_18)"/><path d=" M 359.841 295.6 C 358.288 293.825 357.134 291.737 356.458 289.478 C 355.782 287.22 355.599 284.842 355.922 282.506 C 356.245 280.171 357.066 277.932 358.329 275.94 C 359.593 273.949 361.27 272.252 363.246 270.963 C 362.223 269.384 361.681 267.543 361.685 265.662 C 361.625 263.364 362.411 261.124 363.893 259.365 C 365.375 257.607 367.451 256.452 369.728 256.119 C 372.005 255.787 374.325 256.299 376.249 257.559 C 378.173 258.82 379.568 260.741 380.17 262.96 C 381.397 260.856 383.153 259.109 385.264 257.892 C 387.375 256.674 389.768 256.029 392.205 256.021 C 399.988 256.021 406.259 262.45 406.259 270.38 C 406.261 272.07 405.969 273.747 405.398 275.337 C 405.685 275.337 405.967 275.293 406.259 275.293 C 412.49 275.293 417.54 280.454 417.54 286.819 C 417.54 287.213 417.54 287.602 417.481 287.981 C 420.018 289.117 422.169 290.964 423.673 293.298 C 425.178 295.633 425.97 298.354 425.955 301.13 C 425.955 309.036 419.685 315.441 411.945 315.441 C 411.13 315.44 410.316 315.367 409.513 315.222 C 409.557 315.708 409.581 316.194 409.581 316.68 C 409.581 325.549 402.542 332.74 393.859 332.74 C 390.65 332.741 387.521 331.74 384.908 329.878 C 382.806 331.721 380.106 332.738 377.31 332.74 C 370.825 332.74 365.567 327.371 365.567 320.743 C 365.567 320.456 365.567 320.174 365.611 319.892 L 365.567 319.892 C 358.62 319.892 352.992 314.139 352.992 307.044 C 352.98 304.694 353.612 302.385 354.819 300.368 C 356.026 298.351 357.763 296.702 359.841 295.6 Z " fill="rgb(0,137,123)"/><linearGradient id="_lgradient_19" x1="-543.9956200383301" y1="816.981659667802" x2="-543.9956200383301" y2="630.2706852274356" gradientTransform="matrix(3.653,0,0,90.729,384.636,277.271)" gradientUnits="userSpaceOnUse"><stop offset="0%" stop-opacity="0.25" style="stop-color:rgb(128,128,128)"/><stop offset="54%" stop-opacity="0.12" style="stop-color:rgb(128,128,128)"/><stop offset="100%" stop-opacity="0.1" style="stop-color:rgb(128,128,128)"/></linearGradient><path d=" M 388.289 277.271 L 384.636 277.271 L 384.636 368 L 388.289 368 L 388.289 277.271 L 388.289 277.271 Z " fill="url(#_lgradient_19)"/><path d=" M 387.253 278.544 L 385.414 278.544 L 385.414 368 L 387.253 368 L 387.253 278.544 L 387.253 278.544 Z " fill="rgb(121,85,72)"/><path d=" M 372.35 288.686 L 371.001 289.934 L 386.072 306.192 L 387.421 304.944 L 372.35 288.686 L 372.35 288.686 Z " fill="rgb(121,85,72)"/><path d=" M 401.828 307.168 L 386.199 318.763 L 387.295 320.237 L 402.924 308.643 L 401.828 307.168 L 401.828 307.168 Z " fill="rgb(121,85,72)"/><linearGradient id="_lgradient_20" x1="-576.855906358012" y1="757.3545293719781" x2="-576.855906358012" y2="616.643580537732" gradientTransform="matrix(68.858,0,0,68.401,318.444,270.468)" gradientUnits="userSpaceOnUse"><stop offset="0%" stop-opacity="0.25" style="stop-color:rgb(128,128,128)"/><stop offset="54%" stop-opacity="0.12" style="stop-color:rgb(128,128,128)"/><stop offset="100%" stop-opacity="0.1" style="stop-color:rgb(128,128,128)"/></linearGradient><path d=" M 380.827 305.766 C 383.293 303.144 384.667 299.683 384.67 296.086 C 384.659 293.602 384.003 291.163 382.767 289.007 C 381.531 286.852 379.756 285.053 377.616 283.787 C 378.57 282.395 379.079 280.746 379.076 279.059 C 379.076 274.316 375.092 270.468 370.178 270.468 C 368.28 270.448 366.426 271.038 364.889 272.151 C 363.352 273.264 362.213 274.841 361.641 276.649 C 360.428 274.742 358.749 273.175 356.763 272.094 C 354.777 271.013 352.549 270.453 350.287 270.468 C 342.961 270.468 337.026 276.197 337.026 283.267 C 337.026 284.777 337.301 286.274 337.839 287.684 C 337.571 287.684 337.299 287.645 337.026 287.645 C 331.15 287.645 326.383 292.242 326.383 297.918 C 326.383 298.264 326.401 298.609 326.436 298.953 C 324.093 299.898 322.082 301.515 320.659 303.602 C 319.236 305.688 318.465 308.15 318.444 310.674 C 318.444 317.72 324.364 323.43 331.661 323.43 C 332.427 323.429 333.192 323.364 333.947 323.236 C 333.908 323.658 333.884 324.091 333.884 324.523 C 333.884 332.429 340.524 338.839 348.716 338.839 C 351.722 338.846 354.662 337.958 357.161 336.288 C 359.185 337.96 361.729 338.872 364.356 338.868 C 370.475 338.868 375.437 334.082 375.437 328.177 C 375.437 327.92 375.437 327.692 375.398 327.419 L 375.437 327.419 C 381.99 327.419 387.302 322.293 387.302 315.966 C 387.286 313.831 386.671 311.743 385.526 309.94 C 384.382 308.137 382.753 306.691 380.827 305.766 L 380.827 305.766 L 380.827 305.766 Z " fill="url(#_lgradient_20)"/><path d=" M 379.63 305.722 C 381.997 303.215 383.319 299.902 383.327 296.456 C 383.314 294.081 382.685 291.75 381.502 289.69 C 380.318 287.63 378.621 285.911 376.575 284.701 C 377.493 283.37 377.985 281.793 377.986 280.177 C 377.986 275.638 374.172 271.955 369.468 271.955 C 367.651 271.936 365.876 272.501 364.404 273.567 C 362.933 274.632 361.843 276.142 361.296 277.873 C 360.134 276.048 358.528 274.548 356.627 273.512 C 354.726 272.477 352.593 271.941 350.428 271.955 C 343.418 271.955 337.737 277.441 337.737 284.205 C 337.736 285.65 338 287.083 338.515 288.433 C 338.257 288.433 337.999 288.394 337.737 288.394 C 332.108 288.394 327.55 292.796 327.55 298.224 C 327.552 298.549 327.57 298.873 327.604 299.196 C 325.361 300.1 323.436 301.648 322.074 303.644 C 320.712 305.641 319.974 307.996 319.952 310.412 C 319.952 317.156 325.614 322.623 332.6 322.623 C 333.333 322.623 334.065 322.561 334.789 322.439 C 334.75 322.847 334.73 323.255 334.73 323.673 C 334.73 331.239 341.088 337.376 348.925 337.376 C 351.802 337.387 354.617 336.541 357.01 334.947 C 358.946 336.528 361.373 337.387 363.874 337.376 C 369.711 337.376 374.479 332.794 374.479 327.142 C 374.479 326.899 374.479 326.657 374.44 326.418 L 374.479 326.418 C 380.749 326.418 385.837 321.51 385.837 315.456 C 385.816 313.416 385.223 311.424 384.126 309.703 C 383.029 307.983 381.471 306.604 379.63 305.722 Z " fill="rgb(0,150,136)"/><linearGradient id="_lgradient_21" x1="-587.9179104477618" y1="815.9788840593031" x2="-587.9179104477618" y2="659.2678756680805" gradientTransform="matrix(4.154,0,0,76.151,353.561,291.392)" gradientUnits="userSpaceOnUse"><stop offset="0%" stop-opacity="0.25" style="stop-color:rgb(128,128,128)"/><stop offset="54%" stop-opacity="0.12" style="stop-color:rgb(128,128,128)"/><stop offset="100%" stop-opacity="0.1" style="stop-color:rgb(128,128,128)"/></linearGradient><path d=" M 357.715 291.392 L 353.561 291.392 L 353.561 367.543 L 357.715 367.543 L 357.715 291.392 L 357.715 291.392 Z " fill="url(#_lgradient_21)"/><path d=" M 356.713 291.392 L 354.417 291.392 L 354.417 367.543 L 356.713 367.543 L 356.713 291.392 L 356.713 291.392 Z " fill="rgb(121,85,72)"/><path d=" M 368.127 299.528 L 354.516 313.398 L 356.155 315.003 L 369.767 301.133 L 368.127 299.528 L 368.127 299.528 Z " fill="rgb(121,85,72)"/><path d=" M 341.882 315.296 L 340.563 317.174 L 354.675 327.066 L 355.994 325.189 L 341.882 315.296 L 341.882 315.296 Z " fill="rgb(121,85,72)"/><path d=" M 121 202 L 117 180 Q 191.333 142 211 116 Q 230.667 90 251 85 Q 258.333 84 271 69 Q 283.667 54 322 109 Q 334 122.333 365 134 Q 396 145.667 426 190 L 424 202 L 274 83 L 121 202 Z " fill="rgb(156,170,35)"/></g></g></g></svg>