<?xml version="1.0" encoding="UTF-8" standalone="no"?><!-- Generator: Gravit.io --><svg xmlns="http://www.w3.org/2000/svg" xmlns:xlink="http://www.w3.org/1999/xlink" style="isolation:isolate" viewBox="0 0 431 368" width="431pt" height="368pt"><defs><clipPath id="_clipPath_96SGlH2JPwZC88yyjRp1NPp4iKdhVOp5"><rect width="431" height="368"/></clipPath></defs><g clip-path="url(#_clipPath_96SGlH2JPwZC88yyjRp1NPp4iKdhVOp5)"><clipPath id="_clipPath_8VDx4IsqFvollCI40XY4NLyqbopYjjnM"><rect x="0" y="0" width="431" height="368" transform="matrix(1,0,0,1,0,0)" fill="rgb(255,255,255)"/></clipPath><g clip-path="url(#_clipPath_8VDx4IsqFvollCI40XY4NLyqbopYjjnM)"><g><linearGradient id="_lgradient_22" x1="0" y1="0.5000342785862506" x2="1" y2="0.5000342785862506" gradientTransform="matrix(28.701,0,0,59.804,344.898,85.525)" gradientUnits="userSpaceOnUse"><stop offset="0%" stop-opacity="0.25" style="stop-color:rgb(128,128,128)"/><stop offset="54%" stop-opacity="0.12" style="stop-color:rgb(128,128,128)"/><stop offset="100%" stop-opacity="0.1" style="stop-color:rgb(128,128,128)"/></linearGradient><path d=" M 344.898 117.791 L 344.898 85.525 L 373.599 85.525 L 373.599 145.329 L 344.898 117.791 Z " fill="url(#_lgradient_22)"/><path d=" M 348.303 120.026 L 348.303 91.842 L 369.708 91.842 L 369.708 145.329 L 348.303 120.026 Z " fill="rgb(184,202,31)"/><linearGradient id="_lgradient_23" x1="347.64020984243" y1="559.733732319578" x2="347.64020984243" y2="158.42026727736754" gradientTransform="matrix(185.472,0,0,195.011,0,47.821)" gradientUnits="userSpaceOnUse"><stop offset="0%" stop-opacity="0.25" style="stop-color:rgb(128,128,128)"/><stop offset="54%" stop-opacity="0.12" style="stop-color:rgb(128,128,128)"/><stop offset="100%" stop-opacity="0.1" style="stop-color:rgb(128,128,128)"/></linearGradient><path d=" M 168.067 148.439 C 172.016 143.926 174.95 138.619 176.67 132.876 C 178.389 127.133 178.855 121.088 178.034 115.15 C 177.214 109.212 175.127 103.519 171.914 98.456 C 168.702 93.393 164.438 89.077 159.413 85.802 C 162.011 81.784 163.389 77.101 163.382 72.317 C 163.382 58.789 152.646 47.821 139.405 47.821 C 128.498 47.821 119.304 55.271 116.4 65.456 C 110.139 54.887 98.78 47.821 85.807 47.821 C 66.071 47.821 50.076 64.163 50.076 84.325 C 50.072 88.62 50.812 92.883 52.265 96.925 C 51.541 96.867 50.806 96.813 50.076 96.813 C 34.237 96.813 21.375 109.934 21.375 126.115 C 21.375 127.111 21.424 128.098 21.521 129.075 C 15.078 131.965 9.614 136.663 5.793 142.597 C 1.973 148.531 -0.04 155.447 0.001 162.502 C 0.001 182.596 15.947 198.889 35.614 198.889 C 37.681 198.886 39.743 198.701 41.777 198.335 C 41.67 199.545 41.607 200.765 41.607 202.014 C 41.607 224.561 59.499 242.832 81.569 242.832 C 89.73 242.831 97.686 240.282 104.326 235.543 C 109.669 240.233 116.536 242.823 123.648 242.832 C 140.134 242.832 153.502 229.178 153.502 212.33 C 153.502 211.601 153.444 210.872 153.395 210.168 L 153.502 210.168 C 171.161 210.168 185.472 195.546 185.472 177.508 C 185.499 171.538 183.892 165.674 180.825 160.551 C 177.757 155.427 173.345 151.239 168.067 148.439 L 168.067 148.439 Z " fill="url(#_lgradient_23)"/><path d=" M 163.45 148.245 C 167.158 144.009 169.913 139.027 171.528 133.636 C 173.142 128.244 173.579 122.57 172.809 116.995 C 172.039 111.421 170.079 106.077 167.063 101.324 C 164.047 96.571 160.045 92.521 155.326 89.446 C 157.762 85.682 159.056 81.294 159.053 76.812 C 159.053 64.115 148.978 53.818 136.544 53.818 C 126.329 53.818 117.68 60.81 114.951 70.369 C 112.024 65.352 107.836 61.186 102.802 58.283 C 97.767 55.38 92.062 53.841 86.249 53.818 C 67.725 53.818 52.708 69.159 52.708 88.081 C 52.703 92.112 53.398 96.114 54.761 99.909 C 54.08 99.855 53.399 99.802 52.708 99.802 C 37.823 99.797 25.783 112.106 25.783 127.315 C 25.783 128.253 25.831 129.177 25.919 130.09 C 19.868 132.801 14.735 137.209 11.146 142.78 C 7.557 148.35 5.665 154.843 5.702 161.467 C 5.702 180.331 20.67 195.619 39.131 195.619 C 41.071 195.616 43.006 195.442 44.915 195.099 C 44.818 196.236 44.754 197.388 44.754 198.549 C 44.754 219.712 61.547 236.87 82.265 236.87 C 89.921 236.88 97.388 234.501 103.626 230.067 C 108.646 234.454 115.09 236.872 121.761 236.87 C 137.235 236.87 149.786 224.051 149.786 208.239 C 149.786 207.553 149.732 206.883 149.684 206.207 L 149.786 206.207 C 166.359 206.207 179.795 192.48 179.795 175.55 C 179.824 169.942 178.316 164.433 175.435 159.62 C 172.554 154.807 168.409 150.873 163.45 148.245 Z " fill="rgb(0,137,123)"/><linearGradient id="_lgradient_24" x1="205.39570277529074" y1="660.5778095985958" x2="205.39570277529077" y2="215.06993394614074" gradientTransform="matrix(8.713,0,0,216.49,95.56,104.51)" gradientUnits="userSpaceOnUse"><stop offset="0%" stop-opacity="0.25" style="stop-color:rgb(128,128,128)"/><stop offset="54%" stop-opacity="0.12" style="stop-color:rgb(128,128,128)"/><stop offset="100%" stop-opacity="0.1" style="stop-color:rgb(128,128,128)"/></linearGradient><path d=" M 104.273 104.51 L 95.56 104.51 L 95.56 321 L 104.273 321 L 104.273 104.51 Z " fill="url(#_lgradient_24)"/><path d=" M 102.419 107.552 L 98.036 107.552 L 98.036 321 L 102.419 321 L 102.419 107.552 Z " fill="rgb(121,85,72)"/><path d=" M 133.602 131.655 L 97.638 170.451 L 100.854 173.426 L 136.818 134.63 L 133.602 131.655 Z " fill="rgb(121,85,72)"/><path d=" M 63.263 175.875 L 60.65 179.39 L 97.938 207.054 L 100.552 203.539 L 63.263 175.875 Z " fill="rgb(121,85,72)"/><linearGradient id="_lgradient_25" x1="527.1689944278653" y1="577.5303119654307" x2="527.1689944278653" y2="241.780108276428" gradientTransform="matrix(164.228,0,0,163.125,97.944,88.357)" gradientUnits="userSpaceOnUse"><stop offset="0%" stop-opacity="0.25" style="stop-color:rgb(128,128,128)"/><stop offset="54%" stop-opacity="0.12" style="stop-color:rgb(128,128,128)"/><stop offset="100%" stop-opacity="0.1" style="stop-color:rgb(128,128,128)"/></linearGradient><path d=" M 113.345 172.508 C 107.462 166.254 104.182 157.998 104.171 149.416 C 104.171 137.054 110.898 126.217 121.007 120.109 C 118.732 116.794 117.515 112.869 117.514 108.85 C 117.514 97.532 127.02 88.358 138.748 88.358 C 148.409 88.358 156.547 94.588 159.121 103.111 C 162.016 98.561 166.021 94.821 170.759 92.24 C 175.498 89.66 180.815 88.324 186.211 88.358 C 203.69 88.358 217.831 102.032 217.831 118.899 C 217.831 122.501 217.171 126.073 215.885 129.439 C 216.527 129.39 217.17 129.347 217.831 129.347 C 231.861 129.347 243.229 140.319 243.229 153.857 C 243.228 154.684 243.184 155.509 243.098 156.331 C 254.315 160.996 262.172 171.759 262.172 184.296 C 262.172 201.11 248.064 214.736 230.63 214.736 C 228.8 214.726 226.974 214.563 225.172 214.25 C 225.264 215.265 225.323 216.286 225.323 217.326 C 225.323 236.19 209.479 251.482 189.933 251.482 C 182.769 251.495 175.763 249.377 169.808 245.398 C 164.984 249.349 158.933 251.5 152.695 251.482 C 138.101 251.482 126.256 240.058 126.256 225.966 C 126.256 225.353 126.304 224.756 126.348 224.153 L 126.256 224.153 C 110.621 224.153 97.944 211.917 97.944 196.829 C 97.944 186.226 104.214 177.037 113.345 172.508 Z " fill="url(#_lgradient_25)"/><path d=" M 116.22 172.396 C 110.597 166.405 107.467 158.502 107.464 150.291 C 107.464 138.458 113.905 128.088 123.58 122.242 C 121.392 119.066 120.219 115.301 120.219 111.445 C 120.219 100.613 129.32 91.828 140.543 91.828 C 149.786 91.828 157.569 97.79 160.045 105.949 C 162.816 101.601 166.645 98.026 171.176 95.559 C 175.706 93.092 180.789 91.813 185.949 91.842 C 202.678 91.842 216.236 104.928 216.236 121.071 C 216.239 124.52 215.611 127.941 214.382 131.164 C 214.995 131.12 215.608 131.072 216.236 131.072 C 229.662 131.072 240.558 141.578 240.558 154.533 C 240.559 155.323 240.518 156.113 240.437 156.899 C 251.173 161.365 258.693 171.667 258.693 183.665 C 258.693 199.754 245.18 212.821 228.504 212.821 C 226.754 212.811 225.008 212.655 223.284 212.354 C 223.372 213.326 223.425 214.298 223.425 215.299 C 223.425 233.357 208.258 247.993 189.553 247.993 C 182.687 248.008 175.972 245.978 170.265 242.162 C 165.649 245.946 159.858 248.008 153.886 247.993 C 139.911 247.993 128.591 237.059 128.591 223.57 C 128.591 222.987 128.639 222.413 128.683 221.835 L 128.591 221.835 C 113.623 221.835 101.49 210.124 101.49 195.682 C 101.466 185.526 107.464 176.73 116.22 172.396 Z " fill="rgb(0,150,136)"/><linearGradient id="_lgradient_26" x1="356.6138863659302" y1="658.3295725968894" x2="356.6138863659302" y2="284.39918107670803" gradientTransform="matrix(9.909,0,0,181.702,168.524,138.2)" gradientUnits="userSpaceOnUse"><stop offset="0%" stop-opacity="0.25" style="stop-color:rgb(128,128,128)"/><stop offset="54%" stop-opacity="0.12" style="stop-color:rgb(128,128,128)"/><stop offset="100%" stop-opacity="0.1" style="stop-color:rgb(128,128,128)"/></linearGradient><path d=" M 178.433 138.2 L 168.524 138.2 L 168.524 319.902 L 178.433 319.902 L 178.433 138.2 Z " fill="url(#_lgradient_26)"/><path d=" M 176.38 138.2 L 170.903 138.2 L 170.903 319.902 L 176.38 319.902 L 176.38 138.2 Z " fill="rgb(121,85,72)"/><path d=" M 143.668 157.609 L 139.757 161.439 L 172.237 194.537 L 176.149 190.707 L 143.668 157.609 Z " fill="rgb(121,85,72)"/><path d=" M 206.293 195.216 L 172.623 218.82 L 175.769 223.299 L 209.44 199.695 L 206.293 195.216 Z " fill="rgb(121,85,72)"/><linearGradient id="_lgradient_27" x1="719.0813791278376" y1="790.2173162375583" x2="719.0813791278376" y2="409.9999567012875" gradientTransform="matrix(264.515,0,0,184.763,141.19,170.078)" gradientUnits="userSpaceOnUse"><stop offset="0%" stop-opacity="0.25" style="stop-color:rgb(128,128,128)"/><stop offset="54%" stop-opacity="0.12" style="stop-color:rgb(128,128,128)"/><stop offset="100%" stop-opacity="0.1" style="stop-color:rgb(128,128,128)"/></linearGradient><path d=" M 395.592 170.078 L 151.289 170.078 C 145.709 170.078 141.19 172.585 141.19 175.686 L 141.19 354.841 L 405.705 354.841 L 405.705 175.686 C 405.705 172.585 401.172 170.078 395.592 170.078 Z " fill="url(#_lgradient_27)"/><path d=" M 272.669 67.565 L 145.223 162.128 L 145.223 348.009 L 400.88 348.009 L 400.88 168.873 L 272.669 67.565 Z " fill="rgb(255,255,255)"/><linearGradient id="_lgradient_28" x1="561.0369802677944" y1="372.9111271803735" x2="561.0369802677944" y2="256.230056967495" gradientTransform="matrix(56.76,0,0,56.699,244.542,124.512)" gradientUnits="userSpaceOnUse"><stop offset="0%" stop-opacity="0.25" style="stop-color:rgb(128,128,128)"/><stop offset="54%" stop-opacity="0.12" style="stop-color:rgb(128,128,128)"/><stop offset="100%" stop-opacity="0.1" style="stop-color:rgb(128,128,128)"/></linearGradient><path d=" M 272.922 181.211 C 288.596 181.211 301.302 168.518 301.302 152.861 C 301.302 137.204 288.596 124.512 272.922 124.512 C 257.249 124.512 244.542 137.204 244.542 152.861 C 244.542 168.518 257.249 181.211 272.922 181.211 Z " fill="url(#_lgradient_28)"/><linearGradient id="_lgradient_29" x1="400.0828400007975" y1="530.2058465529283" x2="400.0828400007975" y2="427.0770428015564" gradientTransform="matrix(50.169,0,0,50.115,169.545,207.534)" gradientUnits="userSpaceOnUse"><stop offset="0%" stop-opacity="0.25" style="stop-color:rgb(128,128,128)"/><stop offset="54%" stop-opacity="0.12" style="stop-color:rgb(128,128,128)"/><stop offset="100%" stop-opacity="0.1" style="stop-color:rgb(128,128,128)"/></linearGradient><path d=" M 219.714 207.534 L 169.545 207.534 L 169.545 257.649 L 219.714 257.649 L 219.714 207.534 Z " fill="url(#_lgradient_29)"/><linearGradient id="_lgradient_30" x1="719.9027667038747" y1="530.2058465529282" x2="719.9027667038747" y2="427.0770428015563" gradientTransform="matrix(50.168,0,0,50.115,325.119,207.534)" gradientUnits="userSpaceOnUse"><stop offset="0%" stop-opacity="0.25" style="stop-color:rgb(128,128,128)"/><stop offset="54%" stop-opacity="0.12" style="stop-color:rgb(128,128,128)"/><stop offset="100%" stop-opacity="0.1" style="stop-color:rgb(128,128,128)"/></linearGradient><path d=" M 375.287 207.534 L 325.119 207.534 L 325.119 257.649 L 375.287 257.649 L 375.287 207.534 Z " fill="url(#_lgradient_30)"/><linearGradient id="_lgradient_31" x1="560.0105784237992" y1="430.7000029313643" x2="560.0105784237992" y2="100.75000452178534" gradientTransform="matrix(317.155,0,0,160.335,113.846,48.958)" gradientUnits="userSpaceOnUse"><stop offset="0%" stop-opacity="0.25" style="stop-color:rgb(128,128,128)"/><stop offset="54%" stop-opacity="0.12" style="stop-color:rgb(128,128,128)"/><stop offset="100%" stop-opacity="0.1" style="stop-color:rgb(128,128,128)"/></linearGradient><path d=" M 120.642 209.293 L 113.846 171.322 L 273.229 48.958 L 431.001 173.766 L 426.623 207.835 L 273.204 92.192 L 120.642 209.293 Z " fill="url(#_lgradient_31)"/><path d=" M 120.953 201.669 L 116.279 175.433 L 273.19 53.123 L 428.569 175.443 L 423.865 201.654 L 273.165 83.018 L 120.953 201.669 Z " fill="rgb(184,202,31)"/><linearGradient id="_lgradient_32" x1="560.5171075377542" y1="716.154879984722" x2="560.5171075377542" y2="543.7458612334539" gradientTransform="matrix(61.318,0,0,83.781,242.013,264.228)" gradientUnits="userSpaceOnUse"><stop offset="0%" stop-opacity="0.25" style="stop-color:rgb(128,128,128)"/><stop offset="54%" stop-opacity="0.12" style="stop-color:rgb(128,128,128)"/><stop offset="100%" stop-opacity="0.1" style="stop-color:rgb(128,128,128)"/></linearGradient><path d=" M 303.331 264.228 L 242.013 264.228 L 242.013 348.009 L 303.331 348.009 L 303.331 264.228 Z " fill="url(#_lgradient_32)"/><path d=" M 301.555 266.002 L 243.784 266.002 L 243.784 348.009 L 301.555 348.009 L 301.555 266.002 Z " fill="rgb(184,202,31)"/><path d=" M 218.449 209.303 L 171.827 209.303 L 171.827 225.757 L 218.449 225.757 L 218.449 209.303 Z " fill="rgb(184,202,31)"/><g opacity="0.2"><path d=" M 218.449 225.757 L 171.827 225.757 L 171.827 255.875 L 218.449 255.875 L 218.449 225.757 Z " fill="rgb(184,202,31)"/></g><path d=" M 373.517 209.303 L 326.895 209.303 L 326.895 225.757 L 373.517 225.757 L 373.517 209.303 Z " fill="rgb(184,202,31)"/><g opacity="0.2"><path d=" M 373.517 225.757 L 326.895 225.757 L 326.895 255.875 L 373.517 255.875 L 373.517 225.757 Z " fill="rgb(184,202,31)"/></g><path d=" M 272.669 178.426 C 276.065 178.426 279.428 177.758 282.566 176.459 C 285.703 175.16 288.553 173.256 290.953 170.856 C 293.354 168.456 295.257 165.607 296.554 162.472 C 297.852 159.337 298.518 155.977 298.515 152.584 L 246.824 152.584 C 246.821 155.977 247.487 159.337 248.784 162.472 C 250.082 165.607 251.985 168.456 254.385 170.856 C 256.786 173.256 259.636 175.16 262.773 176.459 C 265.91 177.758 269.273 178.426 272.669 178.426 L 272.669 178.426 Z " fill="rgb(184,202,31)"/><g opacity="0.2"><path d=" M 272.669 178.174 C 279.524 178.174 286.098 175.454 290.945 170.612 C 295.792 165.77 298.515 159.203 298.515 152.356 L 246.824 152.356 C 246.824 159.203 249.547 165.77 254.394 170.612 C 259.241 175.454 265.815 178.174 272.669 178.174 L 272.669 178.174 Z " fill="rgb(0,0,0)"/></g><g opacity="0.2"><path d=" M 272.669 126.791 C 265.819 126.791 259.249 129.507 254.402 134.344 C 249.556 139.18 246.83 145.741 246.824 152.584 L 298.515 152.584 C 298.508 145.741 295.782 139.18 290.936 134.344 C 286.09 129.507 279.52 126.791 272.669 126.791 L 272.669 126.791 Z " fill="rgb(184,202,31)"/></g><g opacity="0.2"><path d=" M 272.669 126.791 C 265.819 126.791 259.249 129.507 254.402 134.344 C 249.556 139.18 246.83 145.741 246.824 152.584 L 298.515 152.584 C 298.508 145.741 295.782 139.18 290.936 134.344 C 286.09 129.507 279.52 126.791 272.669 126.791 L 272.669 126.791 Z " fill="rgb(184,202,31)"/></g><linearGradient id="_lgradient_33" x1="592.2609768130226" y1="643.7305127994073" x2="592.2609768130226" y2="618.7317474689274" gradientTransform="matrix(12.162,0,0,12.149,282.043,300.678)" gradientUnits="userSpaceOnUse"><stop offset="0%" stop-opacity="0.25" style="stop-color:rgb(128,128,128)"/><stop offset="54%" stop-opacity="0.12" style="stop-color:rgb(128,128,128)"/><stop offset="100%" stop-opacity="0.1" style="stop-color:rgb(128,128,128)"/></linearGradient><path d=" M 288.124 312.827 C 291.482 312.827 294.205 310.107 294.205 306.753 C 294.205 303.398 291.482 300.678 288.124 300.678 C 284.766 300.678 282.043 303.398 282.043 306.753 C 282.043 310.107 284.766 312.827 288.124 312.827 Z " fill="url(#_lgradient_33)"/><path d=" M 288.124 311.311 C 290.644 311.311 292.687 309.27 292.687 306.753 C 292.687 304.235 290.644 302.194 288.124 302.194 C 285.604 302.194 283.561 304.235 283.561 306.753 C 283.561 309.27 285.604 311.311 288.124 311.311 Z " fill="rgb(38,50,56)"/><linearGradient id="_lgradient_34" x1="558.4404961673223" y1="741.6753920237059" x2="558.4404961673223" y2="691.6774498909323" gradientTransform="matrix(74.491,0,0,24.297,234.41,336.113)" gradientUnits="userSpaceOnUse"><stop offset="0%" stop-opacity="0.25" style="stop-color:rgb(128,128,128)"/><stop offset="54%" stop-opacity="0.12" style="stop-color:rgb(128,128,128)"/><stop offset="100%" stop-opacity="0.1" style="stop-color:rgb(128,128,128)"/></linearGradient><path d=" M 308.901 336.113 L 234.41 336.113 L 234.41 360.41 L 308.901 360.41 L 308.901 336.113 Z " fill="url(#_lgradient_34)"/><path d=" M 307.378 338.134 L 235.927 338.134 L 235.927 358.889 L 307.378 358.889 L 307.378 338.134 Z " fill="rgb(255,255,255)"/><ellipse vector-effect="non-scaling-stroke" cx="133.55659509215974" cy="268.04252650133265" rx="18.217000000000006" ry="20.04944397021461" fill="rgb(0,137,123)"/><ellipse vector-effect="non-scaling-stroke" cx="386.46309509215973" cy="287.0585560297854" rx="18.216999999999985" ry="20.04944397021461" fill="rgb(0,137,123)"/><ellipse vector-effect="non-scaling-stroke" cx="133.26559509215969" cy="304.32777801489266" rx="23.171999999999997" ry="22.738221985107316" fill="rgb(0,137,123)"/><ellipse vector-effect="non-scaling-stroke" cx="388.2895950921597" cy="319.902" rx="23.17199999999997" ry="22.738221985107316" fill="rgb(0,137,123)"/><linearGradient id="_lgradient_35" x1="273.9556993529118" y1="740.0699955908286" x2="273.9556993529118" y2="534.7098464806796" gradientTransform="matrix(4.018,0,0,99.792,131.257,259.835)" gradientUnits="userSpaceOnUse"><stop offset="0%" stop-opacity="0.25" style="stop-color:rgb(128,128,128)"/><stop offset="54%" stop-opacity="0.12" style="stop-color:rgb(128,128,128)"/><stop offset="100%" stop-opacity="0.1" style="stop-color:rgb(128,128,128)"/></linearGradient><path d=" M 135.275 259.835 L 131.257 259.835 L 131.257 359.627 L 135.275 359.627 L 135.275 259.835 Z " fill="url(#_lgradient_35)"/><path d=" M 134.419 261.235 L 132.4 261.235 L 132.4 359.627 L 134.419 359.627 L 134.419 261.235 Z " fill="rgb(121,85,72)"/><path d=" M 144.126 277 L 132.22 290.211 L 133.701 291.581 L 145.352 278.625 L 144.126 277 Z " fill="rgb(121,85,72)"/><path d=" M 122.641 298.09 L 119 295.369 L 117.875 297.066 L 132.353 307.108 L 133.557 305.489 L 122.641 298.09 Z " fill="rgb(121,85,72)"/><linearGradient id="_lgradient_36" x1="343.6385726795109" y1="739.0305052772335" x2="343.6385726795109" y2="566.6607646019387" gradientTransform="matrix(4.568,0,0,83.756,164.89,275.361)" gradientUnits="userSpaceOnUse"><stop offset="0%" stop-opacity="0.25" style="stop-color:rgb(128,128,128)"/><stop offset="54%" stop-opacity="0.12" style="stop-color:rgb(128,128,128)"/><stop offset="100%" stop-opacity="0.1" style="stop-color:rgb(128,128,128)"/></linearGradient><path d=" M 169.458 275.361 L 164.89 275.361 L 164.89 359.117 L 169.458 359.117 L 169.458 275.361 Z " fill="url(#_lgradient_36)"/><ellipse vector-effect="non-scaling-stroke" cx="168.14147009215966" cy="297.43899999999996" rx="26.487625000000037" ry="33.50400000000002" fill="rgb(0,150,136)"/><path d=" M 168.514 275.361 L 165.99 275.361 L 165.99 347.5 L 165.99 359.117 L 168.514 359.117 L 168.514 275.361 Z " fill="rgb(121,85,72)"/><path d=" M 153.434 284.311 L 151.631 286.076 L 166.605 301.334 L 168.408 299.569 L 153.434 284.311 Z " fill="rgb(121,85,72)"/><path d=" M 182.306 301.639 L 166.784 312.52 L 168.235 314.584 L 183.756 303.703 L 182.306 301.639 Z " fill="rgb(121,85,72)"/><linearGradient id="_lgradient_37" x1="259.86729188078095" y1="511.759742765273" x2="259.86729188078095" y2="495.759742765273" gradientTransform="matrix(7.784,0,0,7.775,122.534,240.908)" gradientUnits="userSpaceOnUse"><stop offset="0%" stop-opacity="0.25" style="stop-color:rgb(128,128,128)"/><stop offset="54%" stop-opacity="0.12" style="stop-color:rgb(128,128,128)"/><stop offset="100%" stop-opacity="0.1" style="stop-color:rgb(128,128,128)"/></linearGradient><path d=" M 126.426 248.683 C 128.575 248.683 130.318 246.943 130.318 244.796 C 130.318 242.649 128.575 240.908 126.426 240.908 C 124.277 240.908 122.534 242.649 122.534 244.796 C 122.534 246.943 124.277 248.683 126.426 248.683 Z " fill="url(#_lgradient_37)"/><linearGradient id="_lgradient_38" x1="-543.9956200383301" y1="816.981659667802" x2="-543.9956200383301" y2="630.2706852274356" gradientTransform="matrix(3.653,0,0,90.729,384.637,277.271)" gradientUnits="userSpaceOnUse"><stop offset="0%" stop-opacity="0.25" style="stop-color:rgb(128,128,128)"/><stop offset="54%" stop-opacity="0.12" style="stop-color:rgb(128,128,128)"/><stop offset="100%" stop-opacity="0.1" style="stop-color:rgb(128,128,128)"/></linearGradient><path d=" M 388.29 277.271 L 384.637 277.271 L 384.637 368 L 388.29 368 L 388.29 277.271 Z " fill="url(#_lgradient_38)"/><path d=" M 387.254 278.544 L 385.415 278.544 L 385.415 368 L 387.254 368 L 387.254 278.544 Z " fill="rgb(121,85,72)"/><path d=" M 372.351 288.686 L 371.002 289.934 L 386.073 306.192 L 387.422 304.944 L 372.351 288.686 Z " fill="rgb(121,85,72)"/><path d=" M 401.829 307.168 L 386.2 318.763 L 387.296 320.237 L 402.925 308.643 L 401.829 307.168 Z " fill="rgb(121,85,72)"/><ellipse vector-effect="non-scaling-stroke" cx="355.56559509215975" cy="307.2655" rx="26.487625000000037" ry="33.50400000000002" fill="rgb(0,150,136)"/><linearGradient id="_lgradient_39" x1="-587.9179104477618" y1="815.9788840593031" x2="-587.9179104477618" y2="659.2678756680805" gradientTransform="matrix(4.154,0,0,76.151,353.562,291.392)" gradientUnits="userSpaceOnUse"><stop offset="0%" stop-opacity="0.25" style="stop-color:rgb(128,128,128)"/><stop offset="54%" stop-opacity="0.12" style="stop-color:rgb(128,128,128)"/><stop offset="100%" stop-opacity="0.1" style="stop-color:rgb(128,128,128)"/></linearGradient><path d=" M 357.716 291.392 L 353.562 291.392 L 353.562 367.543 L 357.716 367.543 L 357.716 291.392 Z " fill="url(#_lgradient_39)"/><path d=" M 356.714 291.392 L 354.418 291.392 L 354.418 367.543 L 356.714 367.543 L 356.714 291.392 Z " fill="rgb(121,85,72)"/><path d=" M 368.128 299.528 L 354.517 313.398 L 356.156 315.003 L 369.768 301.133 L 368.128 299.528 Z " fill="rgb(121,85,72)"/><path d=" M 341.883 315.296 L 340.564 317.174 L 354.676 327.066 L 355.995 325.189 L 341.883 315.296 Z " fill="rgb(121,85,72)"/></g></g></g></svg>