<svg width="255" height="218" viewBox="0 0 255 218" fill="none" xmlns="http://www.w3.org/2000/svg">
<g clip-path="url(#clip0)">
<path d="M204.058 69.7784V50.6642H221.038V86.0917L204.058 69.7784Z" fill="url(#paint0_linear)"/>
<path d="M206.072 71.1026V54.4064H218.736V86.0917L206.072 71.1026Z" fill="#B8CA1F"/>
<path d="M99.436 87.9341C101.773 85.2606 103.509 82.1166 104.526 78.7145C105.543 75.3124 105.819 71.7314 105.333 68.2137C104.848 64.696 103.613 61.3235 101.712 58.3242C99.8116 55.3249 97.2893 52.7686 94.3158 50.8283C95.853 48.448 96.6687 45.6737 96.6643 42.84C96.6643 34.8259 90.3124 28.3288 82.4782 28.3288C76.0255 28.3288 70.5858 32.7417 68.8676 38.7754C65.1635 32.5143 58.4431 28.3288 50.7672 28.3288C39.0908 28.3288 29.6275 38.0097 29.6275 49.9532C29.6249 52.4974 30.0631 55.0229 30.9227 57.4175C30.4939 57.383 30.0593 57.3513 29.6275 57.3513C20.2564 57.3513 12.6467 65.1236 12.6467 74.7095C12.6467 75.2997 12.6755 75.884 12.7331 76.4626C8.9209 78.1748 5.6881 80.9578 3.42768 84.4733C1.16727 87.9887 -0.0234257 92.0852 0.000349207 96.2649C0.000349207 108.168 9.43477 117.82 21.0709 117.82C22.2938 117.819 23.514 117.709 24.7175 117.492C24.6542 118.209 24.6168 118.931 24.6168 119.671C24.6168 133.028 35.2024 143.852 48.2604 143.852C53.0885 143.851 57.7957 142.341 61.7242 139.534C64.8852 142.312 68.948 143.846 73.156 143.852C82.9099 143.852 90.8189 135.763 90.8189 125.783C90.8189 125.351 90.7844 124.919 90.7556 124.502H90.8189C101.266 124.502 109.734 115.84 109.734 105.154C109.75 101.618 108.799 98.1439 106.984 95.1087C105.169 92.0736 102.559 89.5926 99.436 87.9341Z" fill="url(#paint1_linear)"/>
<path d="M96.704 87.8189C98.898 85.3095 100.528 82.3582 101.483 79.1645C102.438 75.9708 102.697 72.6092 102.241 69.307C101.785 66.0047 100.626 62.8389 98.8417 60.0234C97.0572 57.2079 94.6892 54.8084 91.8976 52.9873C93.3385 50.7572 94.1041 48.158 94.1022 45.5028C94.1022 37.9809 88.1417 31.881 80.7852 31.881C74.7412 31.881 69.6239 36.0234 68.0093 41.6857C66.2776 38.714 63.7999 36.2461 60.8216 34.5264C57.8432 32.8068 54.4675 31.8949 51.0285 31.881C40.0687 31.881 31.184 40.9689 31.184 52.1784C31.1811 54.5665 31.592 56.9372 32.3985 59.185C31.9956 59.1533 31.5927 59.1217 31.184 59.1217C22.377 59.1188 15.2537 66.4104 15.2537 75.4206C15.2537 75.9762 15.2825 76.5231 15.3343 77.0643C11.7541 78.6699 8.71749 81.2815 6.59392 84.5814C4.47035 87.8814 3.35129 91.7274 3.37286 95.6517C3.37286 106.827 12.2288 115.883 23.1512 115.883C24.2987 115.881 25.4439 115.778 26.5733 115.575C26.5157 116.248 26.4783 116.931 26.4783 117.619C26.4783 130.155 36.4135 140.32 48.6713 140.32C53.2007 140.325 57.6189 138.917 61.3091 136.29C64.2793 138.889 68.0921 140.321 72.0387 140.32C81.1939 140.32 88.6194 132.726 88.6194 123.359C88.6194 122.953 88.5878 122.556 88.559 122.155H88.6194C98.4251 122.155 106.374 114.023 106.374 103.994C106.392 100.672 105.499 97.4086 103.795 94.5574C102.09 91.7062 99.6381 89.3759 96.704 87.8189Z" fill="#00897B"/>
<path d="M61.6923 61.9111H56.5376V190.158H61.6923V61.9111Z" fill="url(#paint2_linear)"/>
<path d="M60.5956 63.7131H58.0024V190.158H60.5956V63.7131Z" fill="#795548"/>
<path d="M79.0449 77.9914L57.7671 100.974L59.6698 102.736L80.9476 79.7537L79.0449 77.9914Z" fill="#795548"/>
<path d="M37.4289 104.187L35.8828 106.269L57.9443 122.657L59.4904 120.574L37.4289 104.187Z" fill="#795548"/>
<path d="M67.0598 102.192C63.579 98.4873 61.6382 93.5965 61.6317 88.5127C61.6317 81.1894 65.6121 74.77 71.5928 71.1515C70.2472 69.1876 69.5268 66.8626 69.5264 64.4817C69.5264 57.7773 75.1502 52.3425 82.0893 52.3425C87.8052 52.3425 92.6203 56.0329 94.1428 61.082C95.8558 58.3868 98.2251 56.171 101.029 54.6423C103.832 53.1137 106.978 52.3223 110.171 52.3425C120.512 52.3425 128.879 60.443 128.879 70.4348C128.878 72.5688 128.488 74.6848 127.727 76.6785C128.107 76.6498 128.487 76.6238 128.879 76.6238C137.179 76.6238 143.905 83.1238 143.905 91.1437C143.905 91.6332 143.879 92.1222 143.827 92.609C150.464 95.3725 155.113 101.749 155.113 109.176C155.113 119.136 146.766 127.207 136.451 127.207C135.368 127.202 134.288 127.106 133.222 126.92C133.276 127.521 133.311 128.126 133.311 128.742C133.311 139.917 123.937 148.976 112.373 148.976C108.134 148.984 103.989 147.729 100.466 145.372C97.6116 147.712 94.0319 148.987 90.3408 148.976C81.7065 148.976 74.6983 142.208 74.6983 133.86C74.6983 133.497 74.7271 133.143 74.753 132.786H74.6983C65.4481 132.786 57.9478 125.538 57.9478 116.6C57.9478 110.318 61.6576 104.875 67.0598 102.192Z" fill="url(#paint3_linear)"/>
<path d="M68.7608 102.126C65.4341 98.5771 63.5819 93.8954 63.5803 89.0308C63.5803 82.0213 67.3909 75.8783 73.1154 72.4153C71.8205 70.5336 71.127 68.3032 71.1266 66.0189C71.1266 59.6024 76.5116 54.3978 83.1514 54.3978C88.6198 54.3978 93.2247 57.9299 94.6897 62.7632C96.329 60.1874 98.5948 58.0696 101.275 56.6081C103.956 55.1466 106.963 54.3891 110.016 54.4064C119.913 54.4064 127.935 62.1586 127.935 71.7215C127.937 73.7647 127.565 75.791 126.838 77.7005C127.201 77.6746 127.563 77.6458 127.935 77.6458C135.878 77.6458 142.325 83.8694 142.325 91.5439C142.325 92.0121 142.301 92.48 142.253 92.9458C148.605 95.5913 153.055 101.694 153.055 108.801C153.055 118.333 145.059 126.073 135.193 126.073C134.158 126.067 133.125 125.975 132.105 125.797C132.157 126.373 132.188 126.948 132.188 127.541C132.188 138.238 123.215 146.909 112.148 146.909C108.086 146.918 104.113 145.715 100.737 143.455C98.0054 145.697 94.5792 146.918 91.046 146.909C82.7772 146.909 76.0799 140.432 76.0799 132.441C76.0799 132.095 76.1086 131.756 76.1345 131.413H76.0799C67.2239 131.413 60.0459 124.476 60.0459 115.92C60.0316 109.904 63.5803 104.694 68.7608 102.126Z" fill="#009688"/>
<path d="M105.569 81.8687H99.7061V189.507H105.569V81.8687Z" fill="url(#paint4_linear)"/>
<path d="M104.355 81.8687H101.114V189.507H104.355V81.8687Z" fill="#795548"/>
<path d="M85.0003 93.3663L82.686 95.6353L101.903 115.242L104.217 112.973L85.0003 93.3663Z" fill="#795548"/>
<path d="M122.052 115.644L102.131 129.627L103.992 132.28L123.914 118.298L122.052 115.644Z" fill="#795548"/>
<path d="M234.05 100.753H89.5091C86.2079 100.753 83.5342 102.238 83.5342 104.075V210.205H240.034V104.075C240.034 102.238 237.352 100.753 234.05 100.753Z" fill="url(#paint5_linear)"/>
<path d="M161.323 40.0247L85.9199 96.0432V206.157H237.179V100.039L161.323 40.0247Z" fill="white"/>
<path d="M161.473 107.348C170.747 107.348 178.264 99.8287 178.264 90.5536C178.264 81.2785 170.747 73.7596 161.473 73.7596C152.2 73.7596 144.683 81.2785 144.683 90.5536C144.683 99.8287 152.2 107.348 161.473 107.348Z" fill="url(#paint6_linear)"/>
<path d="M129.992 122.941H100.311V152.629H129.992V122.941Z" fill="url(#paint7_linear)"/>
<path d="M222.037 122.941H192.355V152.629H222.037V122.941Z" fill="url(#paint8_linear)"/>
<path d="M71.3772 123.983L67.3564 101.49L161.655 29.0024L255 102.938L252.41 123.12L161.64 54.6137L71.3772 123.983Z" fill="url(#paint9_linear)"/>
<path d="M71.5613 119.467L68.7954 103.925L161.632 31.4694L253.561 103.931L250.778 119.458L161.617 49.1788L71.5613 119.467Z" fill="#B8CA1F"/>
<path d="M179.464 156.526H143.186V206.157H179.464V156.526Z" fill="url(#paint10_linear)"/>
<path d="M178.414 157.577H144.233V206.157H178.414V157.577Z" fill="#B8CA1F"/>
<path d="M129.244 123.989H101.66V133.736H129.244V123.989Z" fill="#B8CA1F"/>
<path opacity="0.2" d="M129.244 133.736H101.66V151.578H129.244V133.736Z" fill="#B8CA1F"/>
<path d="M220.99 123.989H193.406V133.736H220.99V123.989Z" fill="#B8CA1F"/>
<path opacity="0.2" d="M220.99 133.736H193.406V151.578H220.99V133.736Z" fill="#B8CA1F"/>
<path d="M161.324 105.698C163.333 105.698 165.323 105.302 167.179 104.533C169.035 103.763 170.721 102.635 172.141 101.214C173.561 99.7918 174.688 98.1041 175.455 96.2468C176.223 94.3896 176.617 92.3992 176.615 90.3895H146.032C146.03 92.3992 146.424 94.3896 147.192 96.2468C147.96 98.1041 149.086 99.7918 150.506 101.214C151.926 102.635 153.612 103.763 155.469 104.533C157.325 105.302 159.314 105.698 161.324 105.698Z" fill="#B8CA1F"/>
<path opacity="0.2" d="M161.324 105.549C165.379 105.549 169.269 103.937 172.136 101.069C175.004 98.2007 176.615 94.3105 176.615 90.2542H146.032C146.032 94.3105 147.643 98.2007 150.511 101.069C153.379 103.937 157.268 105.549 161.324 105.549Z" fill="black"/>
<path opacity="0.2" d="M161.324 75.1097C157.271 75.1097 153.383 76.7191 150.516 79.5842C147.649 82.4493 146.036 86.3357 146.032 90.3895H176.615C176.611 86.3357 174.998 82.4493 172.131 79.5842C169.264 76.7191 165.377 75.1097 161.324 75.1097Z" fill="#B8CA1F"/>
<path opacity="0.2" d="M161.324 75.1097C157.271 75.1097 153.383 76.7191 150.516 79.5842C147.649 82.4493 146.036 86.3357 146.032 90.3895H176.615C176.611 86.3357 174.998 82.4493 172.131 79.5842C169.264 76.7191 165.377 75.1097 161.324 75.1097Z" fill="#B8CA1F"/>
<path d="M170.467 185.316C172.454 185.316 174.065 183.705 174.065 181.718C174.065 179.73 172.454 178.119 170.467 178.119C168.48 178.119 166.87 179.73 166.87 181.718C166.87 183.705 168.48 185.316 170.467 185.316Z" fill="url(#paint11_linear)"/>
<path d="M170.467 184.418C171.958 184.418 173.167 183.209 173.167 181.718C173.167 180.226 171.958 179.017 170.467 179.017C168.976 179.017 167.768 180.226 167.768 181.718C167.768 183.209 168.976 184.418 170.467 184.418Z" fill="#263238"/>
<path d="M182.759 199.11H138.687V213.504H182.759V199.11Z" fill="url(#paint12_linear)"/>
<path d="M181.859 200.308H139.585V212.603H181.859V200.308Z" fill="white"/>
<path d="M97.4325 165.917C98.5091 164.684 99.3087 163.235 99.7774 161.667C100.246 160.099 100.373 158.449 100.149 156.828C99.9253 155.207 99.3564 153.652 98.4806 152.27C97.6048 150.887 96.4426 149.709 95.0724 148.815C95.7811 147.718 96.1569 146.439 96.1546 145.133C96.1946 143.539 95.6493 141.985 94.6219 140.766C93.5945 139.546 92.1561 138.746 90.5785 138.515C89.0009 138.284 87.3935 138.639 86.06 139.513C84.7265 140.388 83.7593 141.72 83.3413 143.259C82.4904 141.798 81.2725 140.585 79.8085 139.74C78.3444 138.896 76.685 138.448 74.9948 138.443C69.6127 138.443 65.2495 142.905 65.2495 148.412C65.2463 149.589 65.4479 150.758 65.8453 151.866C65.6467 151.852 65.451 151.834 65.2495 151.834C60.9324 151.834 57.4268 155.415 57.4268 159.834C57.4268 160.108 57.4268 160.375 57.4671 160.643C55.709 161.432 54.2179 162.714 53.1751 164.335C52.1322 165.955 51.5826 167.844 51.5929 169.771C51.5929 175.258 55.9417 179.705 61.3065 179.705C61.8702 179.704 62.4327 179.653 62.9873 179.553C62.9585 179.884 62.9413 180.218 62.9413 180.557C62.9413 186.715 67.8341 191.706 73.8407 191.706C76.0654 191.707 78.2348 191.012 80.0458 189.72C81.5036 190.999 83.3764 191.705 85.3157 191.706C89.8113 191.706 93.4578 187.964 93.4578 183.379C93.4578 183.18 93.4434 182.984 93.429 182.788H93.4578C98.2729 182.788 102.176 178.796 102.176 173.865C102.185 172.233 101.748 170.63 100.912 169.229C100.076 167.828 98.8729 166.682 97.4325 165.917Z" fill="url(#paint13_linear)"/>
<path d="M96.1715 165.865C97.1824 164.708 97.9332 163.348 98.3732 161.876C98.8133 160.404 98.9323 158.854 98.7222 157.332C98.5121 155.811 97.9778 154.351 97.1554 153.054C96.3331 151.756 95.2418 150.65 93.9554 149.811C94.6203 148.781 94.9731 147.582 94.9713 146.356C95.0091 144.86 94.4974 143.401 93.5329 142.256C92.5685 141.112 91.2181 140.36 89.7372 140.143C88.2562 139.927 86.7472 140.26 85.4955 141.081C84.2437 141.902 83.3359 143.153 82.9437 144.597C82.1455 143.228 81.0037 142.091 79.6312 141.298C78.2587 140.505 76.703 140.085 75.1182 140.078C70.0671 140.078 65.9715 144.266 65.9715 149.433C65.9707 150.534 66.1605 151.627 66.5328 152.663C66.3486 152.663 66.1615 152.635 65.9715 152.635C61.9163 152.635 58.6295 155.997 58.6295 160.145C58.6295 160.401 58.6295 160.654 58.6669 160.902C57.0168 161.642 55.6171 162.846 54.6382 164.367C53.6592 165.888 53.143 167.66 53.1525 169.469C53.1525 174.619 57.2336 178.796 62.2703 178.796C62.7992 178.795 63.327 178.748 63.8475 178.655C63.8216 178.966 63.8043 179.279 63.8043 179.596C63.8043 185.376 68.3834 190.06 74.0331 190.06C76.1218 190.06 78.1583 189.408 79.8584 188.194C81.2269 189.396 82.9851 190.059 84.8059 190.06C89.028 190.06 92.4472 186.559 92.4472 182.241C92.4472 182.054 92.4328 181.87 92.4184 181.686H92.4472C96.9658 181.686 100.633 177.944 100.633 173.315C100.639 171.784 100.227 170.281 99.4405 168.968C98.6542 167.655 97.5237 166.582 96.1715 165.865Z" fill="#00897B"/>
<path d="M80.034 153.924H77.6567V213.04H80.034V153.924Z" fill="url(#paint14_linear)"/>
<path d="M79.5279 154.753H78.3335V213.04H79.5279V154.753Z" fill="#795548"/>
<path d="M88.0358 161.324L78.2271 171.919L79.1034 172.73L88.9122 162.136L88.0358 161.324Z" fill="#795548"/>
<path d="M68.8489 173.416L68.1367 174.375L78.3056 181.928L79.0178 180.969L68.8489 173.416Z" fill="#795548"/>
<path d="M82.5122 172.491C80.9066 170.784 80.0122 168.528 80.0112 166.184C80.0217 164.566 80.4515 162.978 81.2586 161.576C82.0656 160.173 83.2225 159.004 84.6161 158.182C83.9924 157.276 83.6582 156.202 83.6577 155.102C83.6577 152.01 86.248 149.505 89.4485 149.505C90.6847 149.491 91.8927 149.875 92.8937 150.601C93.8946 151.327 94.6353 152.356 95.0061 153.536C95.7955 152.293 96.8875 151.271 98.1798 150.566C99.4721 149.861 100.922 149.496 102.394 149.505C107.16 149.505 111.029 153.248 111.029 157.854C111.029 158.837 110.85 159.813 110.499 160.732C110.674 160.732 110.85 160.706 111.029 160.706C114.854 160.706 117.956 163.703 117.956 167.399C117.956 167.625 117.945 167.851 117.922 168.076C119.447 168.691 120.755 169.745 121.68 171.105C122.606 172.464 123.108 174.068 123.122 175.713C123.122 180.304 119.271 184.026 114.52 184.026C114.021 184.026 113.523 183.983 113.032 183.9C113.058 184.187 113.072 184.455 113.072 184.74C113.072 189.89 108.755 194.067 103.419 194.067C101.462 194.072 99.5481 193.494 97.9216 192.406C96.6032 193.481 94.9517 194.065 93.2505 194.055C89.2672 194.055 86.0408 190.935 86.0408 187.086C86.0408 186.919 86.0408 186.755 86.0667 186.591H86.0408C81.7755 186.591 78.3188 183.249 78.3188 179.13C78.3289 177.742 78.727 176.385 79.468 175.212C80.2091 174.039 81.2636 173.096 82.5122 172.491Z" fill="url(#paint15_linear)"/>
<path d="M83.2925 172.46C81.7545 170.823 80.8981 168.661 80.8979 166.415C80.9067 164.867 81.3162 163.348 82.0864 162.005C82.8565 160.663 83.9612 159.543 85.2928 158.755C84.6955 157.888 84.3754 156.86 84.3747 155.807C84.3747 152.848 86.8556 150.45 89.9179 150.45C91.1003 150.438 92.2553 150.806 93.2128 151.5C94.1703 152.194 94.8797 153.177 95.2366 154.304C95.9926 153.115 97.038 152.138 98.2749 151.464C99.5117 150.79 100.9 150.441 102.308 150.45C106.87 150.45 110.568 154.022 110.568 158.432C110.569 159.374 110.397 160.307 110.062 161.187C110.229 161.187 110.396 161.161 110.568 161.161C114.229 161.161 117.188 164.04 117.188 167.569C117.188 167.785 117.176 168.001 117.153 168.217C118.613 168.806 119.865 169.814 120.752 171.115C121.638 172.416 122.119 173.951 122.133 175.526C122.133 179.918 118.446 183.482 113.898 183.482C113.416 183.482 112.935 183.442 112.459 183.361C112.485 183.626 112.5 183.894 112.5 184.164C112.5 189.095 108.364 193.088 103.261 193.088C101.388 193.093 99.5564 192.54 97.9996 191.499C96.7402 192.531 95.161 193.093 93.5328 193.088C89.7222 193.088 86.6254 190.103 86.6254 186.418C86.6254 186.26 86.6254 186.102 86.6513 185.946H86.6254C82.5442 185.946 79.2344 182.748 79.2344 178.804C79.2496 177.473 79.638 176.173 80.3554 175.051C81.0728 173.929 82.0904 173.032 83.2925 172.46Z" fill="#009688"/>
<path d="M100.259 163.121H97.5562V212.738H100.259V163.121Z" fill="url(#paint16_linear)"/>
<path d="M99.7008 163.121H98.207V212.738H99.7008V163.121Z" fill="#795548"/>
<path d="M90.7786 168.423L89.7119 169.469L98.5709 178.508L99.6376 177.462L90.7786 168.423Z" fill="#795548"/>
<path d="M107.86 178.688L98.6768 185.134L99.5348 186.357L108.718 179.911L107.86 178.688Z" fill="#795548"/>
<path d="M74.7991 147.318C76.0707 147.318 77.1016 146.287 77.1016 145.015C77.1016 143.743 76.0707 142.712 74.7991 142.712C73.5274 142.712 72.4966 143.743 72.4966 145.015C72.4966 146.287 73.5274 147.318 74.7991 147.318Z" fill="url(#paint17_linear)"/>
<path d="M211.754 175.157C210.776 174.037 210.049 172.719 209.624 171.294C209.198 169.869 209.083 168.369 209.287 166.896C209.49 165.422 210.007 164.009 210.803 162.753C211.599 161.497 212.656 160.426 213.901 159.612C213.256 158.615 212.914 157.452 212.917 156.265C212.878 154.814 213.372 153.399 214.307 152.289C215.241 151.178 216.55 150.449 217.985 150.239C219.421 150.029 220.884 150.353 222.097 151.149C223.31 151.946 224.189 153.159 224.567 154.56C225.341 153.233 226.448 152.13 227.778 151.362C229.109 150.594 230.617 150.187 232.154 150.182C237.047 150.182 241.013 154.241 241.013 159.244C241.014 160.31 240.831 161.369 240.472 162.373C240.65 162.373 240.831 162.344 241.013 162.344C244.941 162.344 248.124 165.6 248.124 169.619C248.124 169.866 248.124 170.111 248.087 170.353C249.686 171.069 251.042 172.235 251.99 173.709C252.938 175.182 253.438 176.899 253.429 178.652C253.429 183.64 249.474 187.685 244.599 187.685C244.086 187.684 243.575 187.638 243.07 187.547C243.096 187.835 243.114 188.151 243.114 188.459C243.114 194.058 238.678 198.595 233.204 198.595C231.181 198.596 229.208 197.965 227.56 196.79C226.234 197.954 224.53 198.595 222.765 198.595C218.678 198.595 215.363 195.204 215.363 191.021C215.363 190.84 215.363 190.661 215.389 190.483H215.363C210.985 190.483 207.437 186.853 207.437 182.374C207.43 180.892 207.829 179.436 208.59 178.164C209.351 176.892 210.445 175.852 211.754 175.157Z" fill="url(#paint18_linear)"/>
<path d="M212.899 175.111C211.98 174.059 211.298 172.823 210.898 171.485C210.498 170.146 210.389 168.738 210.58 167.354C210.771 165.971 211.257 164.644 212.005 163.465C212.752 162.285 213.744 161.28 214.914 160.516C214.308 159.581 213.988 158.49 213.99 157.376C213.955 156.014 214.419 154.687 215.296 153.646C216.173 152.604 217.401 151.92 218.748 151.723C220.096 151.526 221.468 151.829 222.607 152.576C223.745 153.323 224.571 154.461 224.927 155.775C225.653 154.529 226.691 153.494 227.94 152.773C229.189 152.052 230.605 151.67 232.047 151.664C236.652 151.664 240.362 155.473 240.362 160.171C240.363 161.172 240.191 162.165 239.853 163.107C240.022 163.107 240.189 163.081 240.362 163.081C244.049 163.081 247.036 166.138 247.036 169.909C247.036 170.142 247.036 170.373 247.002 170.597C248.502 171.27 249.775 172.365 250.665 173.747C251.555 175.13 252.024 176.742 252.015 178.387C252.015 183.07 248.306 186.865 243.726 186.865C243.244 186.864 242.762 186.821 242.287 186.735C242.313 187.023 242.328 187.311 242.328 187.599C242.328 192.852 238.163 197.113 233.026 197.113C231.127 197.113 229.276 196.52 227.73 195.417C226.486 196.508 224.889 197.111 223.234 197.113C219.398 197.113 216.287 193.932 216.287 190.005C216.287 189.835 216.287 189.668 216.313 189.501H216.287C212.177 189.501 208.847 186.093 208.847 181.89C208.84 180.498 209.214 179.13 209.928 177.935C210.642 176.741 211.67 175.764 212.899 175.111Z" fill="#00897B"/>
<path d="M229.73 164.253H227.569V218H229.73V164.253Z" fill="url(#paint19_linear)"/>
<path d="M229.117 165.007H228.029V218H229.117V165.007Z" fill="#795548"/>
<path d="M220.3 171.015L219.501 171.754L228.419 181.386L229.217 180.646L220.3 171.015Z" fill="#795548"/>
<path d="M237.741 181.964L228.494 188.832L229.142 189.706L238.389 182.837L237.741 181.964Z" fill="#795548"/>
<path d="M225.316 181.133C226.774 179.58 227.587 177.53 227.589 175.399C227.583 173.927 227.195 172.482 226.463 171.205C225.732 169.929 224.682 168.863 223.416 168.113C223.981 167.288 224.282 166.312 224.279 165.312C224.279 162.503 221.922 160.223 219.015 160.223C217.892 160.211 216.795 160.561 215.886 161.22C214.976 161.879 214.303 162.813 213.964 163.884C213.246 162.755 212.253 161.826 211.078 161.186C209.903 160.546 208.585 160.214 207.247 160.223C202.912 160.223 199.401 163.617 199.401 167.805C199.401 168.699 199.563 169.586 199.882 170.422C199.723 170.422 199.562 170.399 199.401 170.399C195.924 170.399 193.104 173.122 193.104 176.484C193.104 176.689 193.114 176.894 193.135 177.097C191.749 177.657 190.559 178.615 189.717 179.851C188.876 181.087 188.42 182.545 188.407 184.041C188.407 188.215 191.909 191.597 196.227 191.597C196.68 191.596 197.132 191.558 197.579 191.482C197.556 191.732 197.542 191.989 197.542 192.245C197.542 196.928 201.47 200.725 206.317 200.725C208.096 200.73 209.835 200.203 211.314 199.214C212.511 200.204 214.017 200.745 215.57 200.743C219.191 200.743 222.127 197.907 222.127 194.409C222.127 194.257 222.127 194.122 222.104 193.96H222.127C226.003 193.96 229.146 190.923 229.146 187.175C229.137 185.911 228.773 184.674 228.096 183.606C227.419 182.538 226.455 181.681 225.316 181.133Z" fill="url(#paint20_linear)"/>
<path d="M224.607 181.107C226.007 179.622 226.79 177.659 226.794 175.618C226.786 174.211 226.414 172.83 225.714 171.61C225.014 170.389 224.01 169.371 222.799 168.654C223.342 167.866 223.634 166.931 223.634 165.974C223.634 163.286 221.378 161.104 218.595 161.104C217.519 161.092 216.469 161.427 215.598 162.059C214.728 162.69 214.083 163.584 213.759 164.61C213.072 163.529 212.122 162.64 210.997 162.026C209.872 161.413 208.611 161.096 207.33 161.104C203.182 161.104 199.821 164.354 199.821 168.361C199.82 169.216 199.976 170.065 200.281 170.865C200.129 170.865 199.976 170.842 199.821 170.842C196.491 170.842 193.794 173.45 193.794 176.666C193.795 176.858 193.805 177.05 193.826 177.241C192.499 177.777 191.36 178.694 190.554 179.876C189.748 181.059 189.311 182.454 189.298 183.885C189.298 187.881 192.648 191.119 196.781 191.119C197.215 191.119 197.649 191.082 198.077 191.01C198.054 191.252 198.042 191.493 198.042 191.741C198.042 196.223 201.804 199.859 206.44 199.859C208.142 199.865 209.808 199.364 211.224 198.419C212.369 199.356 213.805 199.865 215.285 199.859C218.738 199.859 221.559 197.144 221.559 193.796C221.559 193.652 221.559 193.508 221.536 193.367H221.559C225.269 193.367 228.279 190.46 228.279 186.873C228.266 185.665 227.916 184.485 227.267 183.466C226.618 182.447 225.696 181.63 224.607 181.107Z" fill="#009688"/>
<path d="M211.642 172.618H209.184V217.729H211.642V172.618Z" fill="url(#paint21_linear)"/>
<path d="M211.048 172.618H209.69V217.729H211.048V172.618Z" fill="#795548"/>
<path d="M217.801 177.438L209.748 185.654L210.718 186.605L218.771 178.389L217.801 177.438Z" fill="#795548"/>
<path d="M202.274 186.779L201.493 187.891L209.842 193.751L210.623 192.639L202.274 186.779Z" fill="#795548"/>
</g>
<defs>
<linearGradient id="paint0_linear" x1="204.058" y1="68.3794" x2="221.038" y2="68.3794" gradientUnits="userSpaceOnUse">
<stop stop-color="#808080" stop-opacity="0.25"/>
<stop offset="0.54" stop-color="#808080" stop-opacity="0.12"/>
<stop offset="1" stop-color="#808080" stop-opacity="0.1"/>
</linearGradient>
<linearGradient id="paint1_linear" x1="38147.9" y1="64690" x2="38147.9" y2="18329.5" gradientUnits="userSpaceOnUse">
<stop stop-color="#808080" stop-opacity="0.25"/>
<stop offset="0.54" stop-color="#808080" stop-opacity="0.12"/>
<stop offset="1" stop-color="#808080" stop-opacity="0.1"/>
</linearGradient>
<linearGradient id="paint2_linear" x1="1115.31" y1="84779.1" x2="1115.31" y2="27643.9" gradientUnits="userSpaceOnUse">
<stop stop-color="#808080" stop-opacity="0.25"/>
<stop offset="0.54" stop-color="#808080" stop-opacity="0.12"/>
<stop offset="1" stop-color="#808080" stop-opacity="0.1"/>
</linearGradient>
<linearGradient id="paint3_linear" x1="51280.3" y1="55861.2" x2="51280.3" y2="23416.5" gradientUnits="userSpaceOnUse">
<stop stop-color="#808080" stop-opacity="0.25"/>
<stop offset="0.54" stop-color="#808080" stop-opacity="0.12"/>
<stop offset="1" stop-color="#808080" stop-opacity="0.1"/>
</linearGradient>
<linearGradient id="paint4_linear" x1="2190.41" y1="70943.5" x2="2190.41" y2="30694.2" gradientUnits="userSpaceOnUse">
<stop stop-color="#808080" stop-opacity="0.25"/>
<stop offset="0.54" stop-color="#808080" stop-opacity="0.12"/>
<stop offset="1" stop-color="#808080" stop-opacity="0.1"/>
</linearGradient>
<linearGradient id="paint5_linear" x1="112619" y1="86591.9" x2="112619" y2="44976.1" gradientUnits="userSpaceOnUse">
<stop stop-color="#808080" stop-opacity="0.25"/>
<stop offset="0.54" stop-color="#808080" stop-opacity="0.12"/>
<stop offset="1" stop-color="#808080" stop-opacity="0.1"/>
</linearGradient>
<linearGradient id="paint6_linear" x1="18985.4" y1="12599.1" x2="18985.4" y2="8680.03" gradientUnits="userSpaceOnUse">
<stop stop-color="#808080" stop-opacity="0.25"/>
<stop offset="0.54" stop-color="#808080" stop-opacity="0.12"/>
<stop offset="1" stop-color="#808080" stop-opacity="0.1"/>
</linearGradient>
<linearGradient id="paint7_linear" x1="11975.7" y1="15863.5" x2="11975.7" y2="12801.9" gradientUnits="userSpaceOnUse">
<stop stop-color="#808080" stop-opacity="0.25"/>
<stop offset="0.54" stop-color="#808080" stop-opacity="0.12"/>
<stop offset="1" stop-color="#808080" stop-opacity="0.1"/>
</linearGradient>
<linearGradient id="paint8_linear" x1="21560.3" y1="15863.5" x2="21560.3" y2="12801.9" gradientUnits="userSpaceOnUse">
<stop stop-color="#808080" stop-opacity="0.25"/>
<stop offset="0.54" stop-color="#808080" stop-opacity="0.12"/>
<stop offset="1" stop-color="#808080" stop-opacity="0.1"/>
</linearGradient>
<linearGradient id="paint9_linear" x1="105150" y1="40937.3" x2="105150" y2="9598.34" gradientUnits="userSpaceOnUse">
<stop stop-color="#808080" stop-opacity="0.25"/>
<stop offset="0.54" stop-color="#808080" stop-opacity="0.12"/>
<stop offset="1" stop-color="#808080" stop-opacity="0.1"/>
</linearGradient>
<linearGradient id="paint10_linear" x1="20478" y1="35700.1" x2="20478" y2="27143.2" gradientUnits="userSpaceOnUse">
<stop stop-color="#808080" stop-opacity="0.25"/>
<stop offset="0.54" stop-color="#808080" stop-opacity="0.12"/>
<stop offset="1" stop-color="#808080" stop-opacity="0.1"/>
</linearGradient>
<linearGradient id="paint11_linear" x1="4428.55" y1="4811.02" x2="4428.55" y2="4631.1" gradientUnits="userSpaceOnUse">
<stop stop-color="#808080" stop-opacity="0.25"/>
<stop offset="0.54" stop-color="#808080" stop-opacity="0.12"/>
<stop offset="1" stop-color="#808080" stop-opacity="0.1"/>
</linearGradient>
<linearGradient id="paint12_linear" x1="24750.5" y1="10874.3" x2="24750.5" y2="10154.6" gradientUnits="userSpaceOnUse">
<stop stop-color="#808080" stop-opacity="0.25"/>
<stop offset="0.54" stop-color="#808080" stop-opacity="0.12"/>
<stop offset="1" stop-color="#808080" stop-opacity="0.1"/>
</linearGradient>
<linearGradient id="paint13_linear" x1="21506.4" y1="38803.6" x2="21506.4" y2="28950.3" gradientUnits="userSpaceOnUse">
<stop stop-color="#808080" stop-opacity="0.25"/>
<stop offset="0.54" stop-color="#808080" stop-opacity="0.12"/>
<stop offset="1" stop-color="#808080" stop-opacity="0.1"/>
</linearGradient>
<linearGradient id="paint14_linear" x1="728.915" y1="43903.8" x2="728.915" y2="31763.8" gradientUnits="userSpaceOnUse">
<stop stop-color="#808080" stop-opacity="0.25"/>
<stop offset="0.54" stop-color="#808080" stop-opacity="0.12"/>
<stop offset="1" stop-color="#808080" stop-opacity="0.1"/>
</linearGradient>
<linearGradient id="paint15_linear" x1="22789.6" y1="32863.3" x2="22789.6" y2="25966.9" gradientUnits="userSpaceOnUse">
<stop stop-color="#808080" stop-opacity="0.25"/>
<stop offset="0.54" stop-color="#808080" stop-opacity="0.12"/>
<stop offset="1" stop-color="#808080" stop-opacity="0.1"/>
</linearGradient>
<linearGradient id="paint16_linear" x1="1026.29" y1="36831.1" x2="1026.29" y2="28278.7" gradientUnits="userSpaceOnUse">
<stop stop-color="#808080" stop-opacity="0.25"/>
<stop offset="0.54" stop-color="#808080" stop-opacity="0.12"/>
<stop offset="1" stop-color="#808080" stop-opacity="0.1"/>
</linearGradient>
<linearGradient id="paint17_linear" x1="1269.28" y1="2499.8" x2="1269.28" y2="2426.11" gradientUnits="userSpaceOnUse">
<stop stop-color="#808080" stop-opacity="0.25"/>
<stop offset="0.54" stop-color="#808080" stop-opacity="0.12"/>
<stop offset="1" stop-color="#808080" stop-opacity="0.1"/>
</linearGradient>
<linearGradient id="paint18_linear" x1="-22895" y1="36458.6" x2="-22895" y2="28315.1" gradientUnits="userSpaceOnUse">
<stop stop-color="#808080" stop-opacity="0.25"/>
<stop offset="0.54" stop-color="#808080" stop-opacity="0.12"/>
<stop offset="1" stop-color="#808080" stop-opacity="0.1"/>
</linearGradient>
<linearGradient id="paint19_linear" x1="-948.17" y1="44074.6" x2="-948.17" y2="34039.4" gradientUnits="userSpaceOnUse">
<stop stop-color="#808080" stop-opacity="0.25"/>
<stop offset="0.54" stop-color="#808080" stop-opacity="0.12"/>
<stop offset="1" stop-color="#808080" stop-opacity="0.1"/>
</linearGradient>
<linearGradient id="paint20_linear" x1="-23312.5" y1="30848.2" x2="-23312.5" y2="25146.6" gradientUnits="userSpaceOnUse">
<stop stop-color="#808080" stop-opacity="0.25"/>
<stop offset="0.54" stop-color="#808080" stop-opacity="0.12"/>
<stop offset="1" stop-color="#808080" stop-opacity="0.1"/>
</linearGradient>
<linearGradient id="paint21_linear" x1="-1235.76" y1="36982.4" x2="-1235.76" y2="29913" gradientUnits="userSpaceOnUse">
<stop stop-color="#808080" stop-opacity="0.25"/>
<stop offset="0.54" stop-color="#808080" stop-opacity="0.12"/>
<stop offset="1" stop-color="#808080" stop-opacity="0.1"/>
</linearGradient>
<clipPath id="clip0">
<rect width="255" height="218" fill="white"/>
</clipPath>
</defs>
</svg>
