<svg width="202" height="111" viewBox="0 0 202 111" fill="none" xmlns="http://www.w3.org/2000/svg">
<g filter="url(#filter0_d)">
<path d="M12.543 44.4443L14.4434 58.2529L21.1152 44.4443H27.3496L23.9043 64.3505H19.2012L20.0488 59.4697L22.0723 50.4736L15.0996 64.3505H11.9961L9.74023 49.954L8.48242 59.9345L7.70312 64.3505H3.02734L6.47266 44.4443H12.543ZM35.1973 64.624C33.1283 64.5784 31.4694 63.8948 30.2207 62.5732C28.972 61.2516 28.2656 59.4833 28.1016 57.2685C28.0104 56.1747 28.097 54.8896 28.3613 53.413C28.6257 51.9273 29.0951 50.5602 29.7695 49.3115C30.444 48.0628 31.2871 47.0237 32.2988 46.1943C33.9941 44.7997 35.9447 44.1253 38.1504 44.1708C39.5085 44.1982 40.6934 44.5126 41.7051 45.1142C42.7259 45.7066 43.5417 46.5634 44.1523 47.6845C44.763 48.8056 45.1185 50.0816 45.2188 51.5126C45.2917 52.5244 45.2279 53.6773 45.0273 54.9716C44.8359 56.2568 44.4759 57.4872 43.9473 58.663C43.4277 59.8297 42.7533 60.8596 41.9238 61.7529C41.0944 62.6461 40.1146 63.357 38.9844 63.8857C37.8633 64.4052 36.6009 64.6513 35.1973 64.624ZM40.5293 51.4716C40.4382 49.193 39.554 48.0081 37.877 47.9169C36.5827 47.8531 35.5117 48.3681 34.6641 49.4619C33.8164 50.5465 33.2559 52.1507 32.9824 54.2744C32.8092 55.5869 32.7454 56.6031 32.791 57.3232C32.8822 59.6383 33.7754 60.8277 35.4707 60.8915C36.5827 60.9462 37.5397 60.5497 38.3418 59.7021C39.1439 58.8453 39.7227 57.6057 40.0781 55.9833C40.4336 54.3518 40.584 52.8479 40.5293 51.4716ZM62.0215 64.3505H57.4961L52.7383 51.7861L50.5508 64.3505H45.875L49.3203 44.4443H53.8867L58.6309 57.0087L60.8047 44.4443H65.4805L62.0215 64.3505ZM82.6797 48.1494H76.8828L74.0801 64.3505H69.3906L72.207 48.1494H66.5059L67.1621 44.4443H83.3223L82.6797 48.1494Z" fill="#768288"/>
</g>
<g filter="url(#filter1_d)">
<path d="M132.193 44.4901L129.979 57.4783C129.66 59.7296 128.73 61.5024 127.189 62.7967C125.658 64.091 123.726 64.7199 121.393 64.6834C119.943 64.6561 118.686 64.3462 117.619 63.7537C116.553 63.1522 115.764 62.3091 115.254 61.2244C114.753 60.1307 114.584 58.8865 114.748 57.492L116.963 44.4901H121.666L119.465 57.5057C119.41 57.9614 119.401 58.3943 119.438 58.8045C119.483 59.479 119.693 60.0031 120.066 60.3768C120.449 60.7505 120.987 60.951 121.68 60.9783C123.685 61.0421 124.893 59.88 125.303 57.492L127.518 44.4901H132.193ZM137.553 57.6424L136.377 64.3963H131.701L135.146 44.4901L142.297 44.5037C144.512 44.5037 146.253 45.119 147.52 46.3494C148.796 47.5799 149.356 49.1749 149.201 51.1346C149.092 52.4744 148.663 53.6365 147.916 54.6209C147.169 55.6053 146.18 56.3572 144.949 56.8768C143.728 57.3963 142.356 57.6561 140.834 57.6561L137.553 57.6424ZM138.195 53.9373L141.012 53.9647C142.197 53.9373 143.104 53.5545 143.732 52.8162C144.361 52.0688 144.612 51.1528 144.484 50.0682C144.411 49.5122 144.197 49.0747 143.842 48.7557C143.495 48.4276 143.035 48.2453 142.461 48.2088L139.193 48.1951L138.195 53.9373Z" fill="#B8CA1F"/>
</g>
<g clip-path="url(#clip0)">
<g filter="url(#filter2_d)">
<path d="M150.32 71.868H113.971C108.134 71.7386 102.583 63.5437 97.3192 47.2832C96.6276 45.1466 88.8512 20.1888 88.1694 17.7737" stroke="#768288" stroke-width="5" stroke-miterlimit="3" stroke-linecap="square"/>
<path d="M-91.3774 71.868H29.6843H70.771C80.6362 71.7541 89.9856 64.0774 98.8192 48.838C99.3729 47.8833 109.488 27.9954 110.037 26.9812" stroke="#B8CA1F" stroke-width="5" stroke-miterlimit="3" stroke-linecap="square"/>
<path d="M97.7598 22.3573L82.3522 29.1021L79.9664 2.96775L97.7598 22.3573Z" fill="#768288"/>
<path d="M119.023 29.2763L103.296 21.5315L122.698 2.22166L119.023 29.2763Z" fill="#B8CA1F"/>
</g>
</g>
<defs>
<filter id="filter0_d" x="0.0273438" y="42.1687" width="88.2949" height="28.4573" filterUnits="userSpaceOnUse" color-interpolation-filters="sRGB">
<feFlood flood-opacity="0" result="BackgroundImageFix"/>
<feColorMatrix in="SourceAlpha" type="matrix" values="0 0 0 0 0 0 0 0 0 0 0 0 0 0 0 0 0 0 127 0"/>
<feOffset dx="1" dy="2"/>
<feGaussianBlur stdDeviation="2"/>
<feColorMatrix type="matrix" values="0 0 0 0 0 0 0 0 0 0 0 0 0 0 0 0 0 0 0.25 0"/>
<feBlend mode="normal" in2="BackgroundImageFix" result="effect1_dropShadow"/>
<feBlend mode="normal" in="SourceGraphic" in2="effect1_dropShadow" result="shape"/>
</filter>
<filter id="filter1_d" x="111.688" y="42.4901" width="42.539" height="28.1949" filterUnits="userSpaceOnUse" color-interpolation-filters="sRGB">
<feFlood flood-opacity="0" result="BackgroundImageFix"/>
<feColorMatrix in="SourceAlpha" type="matrix" values="0 0 0 0 0 0 0 0 0 0 0 0 0 0 0 0 0 0 127 0"/>
<feOffset dx="1" dy="2"/>
<feGaussianBlur stdDeviation="2"/>
<feColorMatrix type="matrix" values="0 0 0 0 0 0 0 0 0 0 0 0 0 0 0 0 0 0 0.25 0"/>
<feBlend mode="normal" in2="BackgroundImageFix" result="effect1_dropShadow"/>
<feBlend mode="normal" in="SourceGraphic" in2="effect1_dropShadow" result="shape"/>
</filter>
<filter id="filter2_d" x="-97.8774" y="0.221649" width="254.698" height="80.1463" filterUnits="userSpaceOnUse" color-interpolation-filters="sRGB">
<feFlood flood-opacity="0" result="BackgroundImageFix"/>
<feColorMatrix in="SourceAlpha" type="matrix" values="0 0 0 0 0 0 0 0 0 0 0 0 0 0 0 0 0 0 127 0"/>
<feOffset dy="2"/>
<feGaussianBlur stdDeviation="2"/>
<feColorMatrix type="matrix" values="0 0 0 0 0 0 0 0 0 0 0 0 0 0 0 0 0 0 0.25 0"/>
<feBlend mode="normal" in2="BackgroundImageFix" result="effect1_dropShadow"/>
<feBlend mode="normal" in="SourceGraphic" in2="effect1_dropShadow" result="shape"/>
</filter>
<clipPath id="clip0">
<rect x="3" y="0.509583" width="199" height="110.49" fill="white"/>
</clipPath>
</defs>
</svg>
